<svg width="224" height="231" viewBox="0 0 224 231" fill="none" xmlns="http://www.w3.org/2000/svg">
<path d="M0.5 27C0.5 16.2305 9.23045 7.5 20 7.5H204C214.77 7.5 223.5 16.2304 223.5 27V211C223.5 221.77 214.77 230.5 204 230.5H20C9.23045 230.5 0.5 221.77 0.5 211V27Z" stroke="#E0E0E0"/>
<path d="M107.297 85.8275C105.361 89.94 101.489 93.2649 97.9835 95.5672C97.0156 98.5914 94.8883 104.093 94.5984 105.307C93.6305 102.283 93.3352 99.9148 92.3016 99.8655C91.268 99.8163 90.3657 100.653 90.0048 102.589C89.6439 104.525 89.4579 106.16 90.0649 109.058C90.6282 111.76 91.3337 113.838 93.7563 113.592C93.9969 116.375 93.636 118.311 94.9648 120.849C96.2937 123.392 99.1976 128.106 98.957 131.37C95.6922 131.852 93.7563 131.37 92.668 130.042C91.5798 128.713 91.1587 127.378 90.7321 125.568C88.6759 124.961 87.5876 122.303 87.8283 120.368C85.4713 118.492 84.5033 115.167 84.383 112.383C84.2627 109.6 85.0502 105.247 86.8603 102.102C88.6759 98.9578 91.2134 96.0539 92.668 94.6047C94.1172 93.1555 95.3914 91.1595 96.239 88.3759C97.0867 85.5924 98.9023 83.8479 100.838 82.7487C102.654 81.7206 105.131 82.0214 106.586 82.869C108.161 81.4198 110.157 80.6323 113.181 80.6323C116.205 80.6323 118.868 82.1417 121.646 84.8049C124.43 87.4681 126.366 90.3064 128.302 94.5446C130.238 98.7773 131.566 101.801 131.933 106.28C132.299 110.759 133.141 116.14 133.688 119.285C134.142 121.915 133.809 124.485 133.081 125.814C132.354 127.143 130.604 129.385 128.608 129.019C127.033 131.376 124.856 132.103 123.167 131.983C121.592 133.798 118.146 134.947 114.821 133.191C114.942 130.649 115.182 128.111 115.549 126.662C117.058 125.153 118.453 123.157 119.902 121.221C120.263 116.14 120.509 108.883 121.477 105.619C120.088 103.983 119.3 99.5702 118.693 95.6984C118.086 91.8266 117.118 88.0752 114.942 86.5057C112.743 84.9197 110.687 84.9799 107.297 85.8275Z" fill="#D44B4B"/>
<path d="M129.936 129.713C129.706 129.713 129.482 129.593 129.362 129.374C129.187 129.057 129.301 128.658 129.619 128.483C132.254 127.034 133.797 123.764 133.376 120.532L133.365 120.455C132.949 117.256 132.249 111.902 132.391 107.128C132.522 102.633 131.068 98.7171 127.759 91.6517C124.484 84.6573 118.441 80.2659 115.389 79.5058C112.042 78.6691 108.132 79.3691 107.706 80.0581C107.514 80.3644 107.11 80.4573 106.803 80.2659C106.497 80.0745 106.404 79.6699 106.596 79.3636C107.585 77.7777 112.436 77.4168 115.712 78.2371C119.102 79.0847 125.452 83.6346 128.951 91.0993C132.353 98.3617 133.851 102.408 133.709 107.172C133.572 111.842 134.261 117.13 134.672 120.291L134.683 120.368C135.175 124.119 133.354 127.931 130.253 129.637C130.149 129.692 130.045 129.713 129.936 129.713Z" fill="#475658"/>
<path d="M125.375 132.311C125.102 132.311 124.85 132.141 124.757 131.868C124.637 131.523 124.823 131.152 125.162 131.031C126.797 130.468 128.066 128.997 128.64 126.984C129.198 125.021 129.696 120.466 128.766 115.954C128.695 115.599 128.919 115.254 129.275 115.178C129.63 115.107 129.974 115.331 130.051 115.686C131.101 120.799 130.412 125.546 129.898 127.34C129.203 129.768 127.634 131.562 125.589 132.267C125.518 132.3 125.446 132.311 125.375 132.311Z" fill="#475658"/>
<path d="M106.542 86.4183C106.225 86.2378 105.825 86.3527 105.645 86.6644C103.764 89.9784 99.9521 93.7025 97.5733 95.1025C97.4311 95.1845 97.3272 95.3158 97.278 95.4689C96.9772 96.4259 96.5342 97.6071 96.0749 98.854C95.5389 100.303 94.9538 101.878 94.489 103.36C94.221 100.888 93.7507 99.6415 92.9195 99.2094C92.6023 99.0454 92.0882 98.9251 91.4265 99.2969C89.8461 100.172 88.9766 102.026 88.9766 104.519C88.9766 106.969 89.1297 108.501 89.5617 110.382C89.9172 111.913 90.3929 113.98 92.1156 113.98C92.1976 113.98 92.2851 113.975 92.3726 113.964C92.7335 113.926 92.9905 113.597 92.9523 113.237C92.914 112.876 92.5859 112.619 92.2249 112.657C91.6398 112.722 91.3007 112.094 90.8359 110.081C90.4258 108.309 90.2836 106.855 90.2836 104.514C90.2836 102.523 90.9125 101.074 92.0554 100.44C92.0992 100.418 92.2468 100.341 92.307 100.374C92.4054 100.423 92.8976 100.812 93.1874 103.579C93.2257 103.94 93.5483 104.202 93.9093 104.164C94.0624 104.148 94.1937 104.071 94.2976 103.967C94.1444 104.487 94.0077 104.99 93.8983 105.466C93.8163 105.821 94.0405 106.171 94.3905 106.253C94.4397 106.264 94.489 106.269 94.5382 106.269C94.8389 106.269 95.1069 106.062 95.178 105.761C95.61 103.852 96.5069 101.446 97.2998 99.3188C97.7319 98.154 98.142 97.0493 98.4483 96.1087C100.969 94.5447 104.786 90.826 106.777 87.3151C106.968 86.998 106.854 86.5933 106.542 86.4183Z" fill="#475658"/>
<path d="M107.57 101.364C107.455 101.364 107.345 101.337 107.242 101.277C105.699 100.38 103.014 99.5594 101.078 99.8219C100.712 99.8657 100.389 99.6196 100.34 99.2587C100.291 98.8977 100.542 98.5696 100.903 98.5204C103.156 98.2196 106.126 99.111 107.903 100.145C108.215 100.325 108.324 100.73 108.138 101.041C108.013 101.249 107.794 101.364 107.57 101.364Z" fill="#475658"/>
<path d="M122.68 130.036C121.762 128.609 121.488 127.105 121.133 125.207C121.034 124.677 120.93 124.119 120.81 123.539C120.389 121.549 120.487 118.093 121.1 112.974C121.204 112.126 121.373 111.065 121.559 109.944C122.155 106.28 122.905 101.719 122.358 98.2359C122.303 97.8804 121.964 97.6343 121.608 97.689C121.253 97.7437 121.007 98.0828 121.062 98.4382C121.302 99.9859 121.264 101.796 121.1 103.65C120.619 102.179 120.241 100.226 119.853 98.1867C119.317 95.4031 118.765 92.5266 117.846 90.1204C116.873 87.583 115.194 85.7236 113.11 84.8924C111.448 84.2252 109.676 84.2635 108.128 85.0018C107.8 85.1549 107.663 85.5486 107.817 85.8767C107.97 86.2049 108.363 86.347 108.692 86.1885C109.906 85.6088 111.3 85.5814 112.623 86.1119C114.362 86.8064 115.779 88.3978 116.621 90.5907C117.501 92.8875 118.043 95.7094 118.568 98.4328C118.77 99.4937 118.973 100.527 119.186 101.495C117.775 101.266 116.167 101.353 114.926 101.769C114.581 101.883 114.395 102.255 114.516 102.6C114.609 102.873 114.866 103.048 115.139 103.048C115.21 103.048 115.281 103.037 115.347 103.015C116.544 102.611 118.229 102.573 119.53 102.906C119.793 103.901 120.083 104.787 120.433 105.487C120.52 105.668 120.684 105.783 120.865 105.826C120.684 107.172 120.471 108.501 120.274 109.726C120.088 110.863 119.913 111.94 119.809 112.81C119.169 118.147 119.082 121.636 119.536 123.802C119.656 124.371 119.755 124.917 119.853 125.437C120.214 127.4 120.531 129.095 121.587 130.742C121.712 130.938 121.926 131.042 122.139 131.042C122.259 131.042 122.385 131.009 122.494 130.938C122.79 130.747 122.877 130.337 122.68 130.036Z" fill="#475658"/>
<path d="M110.873 115.15C110.555 115.15 110.276 114.921 110.227 114.593C109.905 112.504 111.173 109.337 111.961 107.636C112.114 107.308 112.502 107.161 112.83 107.314C113.158 107.467 113.301 107.855 113.153 108.183C111.939 110.808 111.332 113.132 111.523 114.39C111.578 114.751 111.332 115.085 110.976 115.139C110.938 115.145 110.905 115.15 110.873 115.15Z" fill="#475658"/>
<path d="M116.73 109.927C117.416 109.816 117.882 109.17 117.771 108.484C117.659 107.799 117.013 107.333 116.328 107.444C115.642 107.555 115.176 108.201 115.287 108.887C115.399 109.573 116.045 110.039 116.73 109.927Z" fill="#475658"/>
<path d="M100.986 105.886C100.986 106.581 101.55 107.144 102.244 107.144C102.939 107.144 103.502 106.581 103.502 105.886C103.502 105.192 102.939 104.629 102.244 104.629C101.555 104.629 100.986 105.192 100.986 105.886Z" fill="#475658"/>
<path d="M129.783 164.757C129.674 164.757 129.564 164.729 129.466 164.674C129.149 164.499 129.034 164.1 129.209 163.783C129.767 162.782 130.445 161.213 131.238 159.397C133.206 154.875 135.651 149.247 138.604 146.437C138.866 146.185 139.282 146.196 139.534 146.458C139.785 146.721 139.774 147.137 139.512 147.388C136.75 150.013 134.262 155.744 132.446 159.922C131.642 161.771 130.948 163.362 130.363 164.423C130.237 164.636 130.013 164.757 129.783 164.757Z" fill="#475658"/>
<path d="M59.5443 191.706C59.2108 191.706 58.9045 191.607 58.653 191.41C58.3194 191.148 57.6467 190.339 58.5983 188.436C59.8779 185.876 65.2372 182.491 68.491 182.185C68.852 182.152 69.1746 182.415 69.2074 182.776C69.2402 183.136 68.9778 183.459 68.6168 183.492C65.8169 183.754 60.8568 186.855 59.774 189.021C59.3147 189.939 59.4186 190.333 59.4623 190.377C59.517 190.415 59.8889 190.41 60.4029 189.967C60.9115 189.529 61.2451 189.064 61.5732 188.616C62.0709 187.927 62.5849 187.211 63.6294 186.691C63.9521 186.532 64.3458 186.658 64.5099 186.986C64.6739 187.309 64.5427 187.703 64.2146 187.867C63.4599 188.244 63.099 188.747 62.6396 189.387C62.2841 189.874 61.8849 190.432 61.2615 190.968C60.6873 191.454 60.0803 191.706 59.5443 191.706Z" fill="#475658"/>
<path d="M128.716 195.189C128.596 195.189 128.481 195.178 128.366 195.162C127.163 194.976 126.365 193.986 126.425 192.75C126.447 192.302 126.48 191.848 126.518 191.394C126.633 189.923 126.747 188.403 126.31 187.588C126.14 187.271 126.255 186.872 126.578 186.697C126.895 186.527 127.294 186.642 127.469 186.964C128.087 188.118 127.962 189.753 127.83 191.493C127.797 191.935 127.759 192.378 127.743 192.81C127.71 193.489 128.169 193.8 128.574 193.86C129.022 193.926 129.619 193.718 129.832 192.903C130.319 191.033 128.481 185.603 126.179 183.202C125.927 182.94 125.938 182.524 126.195 182.272C126.458 182.021 126.873 182.032 127.125 182.289C129.586 184.854 131.74 190.782 131.101 193.232C130.734 194.615 129.673 195.189 128.716 195.189Z" fill="#475658"/>
<path d="M142.82 148.236C142.508 148.05 142.103 148.148 141.917 148.46C141.731 148.772 141.83 149.171 142.142 149.357C142.53 149.641 143.569 152.222 143.421 155.58C143.378 156.608 143.328 158.823 143.268 161.623C143.131 167.83 142.951 176.334 142.656 178.302C142.196 181.354 140.589 186.773 138.024 191.985C136.225 195.649 134.666 197.656 132.659 200.089C130.986 202.124 128.016 201.85 123.767 200.746C119.835 199.729 91.0645 193.248 89.1778 192.958C87.6411 192.723 87.4443 192.319 87.5591 191.061C87.745 188.999 88.8716 182.07 90.6489 179.177C91.7754 177.345 93.1645 176.963 93.8207 177.148C95.0293 177.493 121.968 183.383 123.537 183.645C123.898 183.705 124.232 183.465 124.292 183.104C124.308 183 124.292 182.896 124.265 182.803C125.49 181.923 126.376 180.998 126.966 179.981C127.874 179.5 129.334 178.193 129.733 177.176C129.886 176.793 129.892 176.443 129.761 176.137C130.455 175.841 131.122 175.502 131.587 175.158C132.752 174.294 133.069 172.872 132.336 171.773C132.293 171.702 132.232 171.652 132.167 171.603C132.473 171.259 132.708 170.865 132.938 170.324C133.217 169.673 133.075 168.984 132.577 168.524C132.047 168.032 131.013 167.759 129.711 168.442C129.657 168.47 129.58 168.508 129.504 168.546C129.558 167.939 129.416 167.327 129.066 166.895C128.842 166.621 127.994 165.801 126.469 166.807C125.276 167.589 122.64 168.951 121.065 169.771C120.595 170.017 120.212 170.214 119.999 170.329C119.627 170.531 119.212 170.772 118.812 171.056C120.475 167.086 122.11 162.235 122.99 158.829C124.44 153.201 124.057 143.451 121.53 138.163C124.861 139.442 130.094 141.367 133.764 142.718C135.875 143.494 137.532 144.101 138.133 144.337C139.457 144.845 141.245 145.649 141.496 146.765C141.562 147.071 141.835 147.279 142.136 147.279C142.185 147.279 142.229 147.273 142.278 147.262C142.634 147.186 142.858 146.83 142.776 146.48C142.399 144.78 140.457 143.823 138.603 143.112C137.996 142.876 136.334 142.269 134.212 141.487C129.947 139.918 123.548 137.566 120.535 136.369C120.092 135.789 119.687 135.313 119.277 134.827C120.65 134.657 121.93 134.116 122.75 133.208C122.99 132.94 122.974 132.524 122.701 132.284C122.433 132.043 122.017 132.06 121.776 132.333C120.579 133.662 117.5 134.149 115.482 132.765C115.444 132.738 115.394 132.727 115.351 132.71C115.411 130.84 115.624 128.959 116.062 127.329C116.1 127.198 116.078 127.067 116.034 126.941C116.833 126.142 117.571 125.262 118.194 124.305C118.391 124.004 118.309 123.594 118.003 123.397C117.702 123.2 117.292 123.282 117.095 123.589C114.902 126.952 111.506 128.97 109.838 129.637C107.859 130.43 105.223 130.102 103.637 129.369C102.128 128.674 101.231 127.761 100.186 126.706L99.7651 126.285C99.5081 126.028 99.0925 126.028 98.8354 126.285C98.7698 126.35 98.7206 126.427 98.6933 126.503C98.4636 126.044 98.1956 125.585 97.8894 125.12C96.7847 123.463 95.3355 120.471 94.9144 118.53C94.4332 116.288 94.6191 113.368 94.7558 111.235L94.7832 110.83C94.8051 110.469 94.5316 110.158 94.1707 110.136C93.8098 110.103 93.498 110.387 93.4762 110.748L93.4488 111.153C93.3066 113.362 93.1152 116.392 93.6348 118.809C94.0941 120.931 95.6035 124.059 96.8011 125.853C97.698 127.198 98.2175 128.483 98.3761 129.768C98.4198 130.102 98.6987 130.342 99.0268 130.342C99.0542 130.342 99.0815 130.342 99.1089 130.337C99.4698 130.293 99.7214 129.965 99.6776 129.604C99.5901 128.904 99.4097 128.215 99.1472 127.515L99.2565 127.624C100.345 128.724 101.367 129.763 103.09 130.561C104.156 131.053 105.66 131.409 107.219 131.409C108.269 131.409 109.346 131.245 110.325 130.856C111.566 130.359 113.054 129.484 114.492 128.324C113.77 132.147 113.973 136.812 114.525 139.82V139.825C114.525 139.825 114.525 139.825 114.525 139.83C115.028 142.335 115.154 145.157 115.028 148.143C114.842 148.072 114.629 148.083 114.448 148.197C110.046 151.036 99.6831 150.812 95.3355 147.776C95.1933 147.678 95.0238 147.645 94.8597 147.667C94.7285 145.425 94.6683 143.314 94.7066 141.466C94.8597 141.422 94.9965 141.318 95.084 141.17C95.8058 139.923 97.4464 134.909 97.5175 132.628C97.5175 132.579 97.5011 132.535 97.4956 132.492C98.0753 132.475 98.6714 132.399 99.262 132.229C99.612 132.131 99.8143 131.764 99.7104 131.42C99.612 131.07 99.2511 130.867 98.9011 130.966C96.1941 131.737 93.3121 130.271 92.5957 128.959C91.3817 126.744 91.2778 125.306 91.2778 121.434C91.2778 121.073 90.9825 120.778 90.6215 120.778C90.2606 120.778 89.9653 121.073 89.9653 121.434C89.9653 122.61 89.9762 123.578 90.0255 124.425C88.3302 122.407 88.3138 119.52 89.9708 115.375C90.1075 115.036 89.9434 114.658 89.6044 114.522C89.2653 114.385 88.888 114.549 88.7513 114.888C88.0458 116.649 87.6302 118.229 87.4935 119.651C87.5044 119.487 87.4552 119.323 87.3458 119.192C86.0716 117.666 84.8412 115.757 84.9779 110.808C85.1037 106.313 87.3403 100.719 91.4473 94.6376C93.6785 91.329 94.3347 89.3275 94.909 87.5611C95.3082 86.3362 95.6527 85.2807 96.4949 83.9901C98.4253 81.0261 102.91 79.7519 104.419 80.6871C104.725 80.8785 105.13 80.7855 105.321 80.4793C105.513 80.173 105.42 79.7683 105.113 79.5769C102.893 78.1934 97.6816 79.7683 95.3957 83.2737C94.4605 84.7065 94.0723 85.8987 93.6621 87.1565C93.1152 88.8408 92.4918 90.7494 90.359 93.9048C87.4005 98.2906 83.8349 104.776 83.6654 110.776C83.5178 116.179 84.967 118.388 86.3396 120.034C86.4708 120.187 86.6568 120.269 86.8427 120.269C86.9904 120.269 87.138 120.22 87.2638 120.116C87.395 120.007 87.4716 119.853 87.4935 119.695C87.2638 122.161 87.8872 124.13 89.3692 125.656C89.5005 125.787 89.67 125.853 89.8395 125.853C89.9489 125.853 90.0528 125.814 90.1512 125.76C90.3372 127.132 90.709 128.237 91.4473 129.582C92.0051 130.599 93.3941 131.644 95.1222 132.163C95.1168 132.169 95.1058 132.174 95.1004 132.18C93.9082 133.585 92.016 134.739 90.4958 135.669L89.9981 135.97C89.6919 136.156 89.5934 136.56 89.7794 136.866C89.5223 136.784 89.2544 136.866 89.0848 137.069C89.0848 137.009 89.0903 136.948 89.0739 136.888C88.9809 136.538 88.62 136.325 88.27 136.423C87.57 136.609 86.5365 136.866 85.3552 137.156C80.4444 138.37 76.2718 139.437 74.9867 140.153C73.0234 141.241 72.5695 142.603 72.1703 143.801C72.0555 144.145 72.2414 144.517 72.5859 144.632C72.657 144.654 72.7227 144.665 72.7938 144.665C73.0672 144.665 73.3242 144.49 73.4172 144.216C73.789 143.101 74.1117 142.138 75.6265 141.296C76.8679 140.607 82.167 139.295 85.6724 138.425C86.8646 138.13 87.9036 137.873 88.6091 137.687C88.6802 137.67 88.7349 137.632 88.795 137.594C84.3162 146.951 86.531 158.325 87.6028 163.832C88.3247 167.54 89.2981 170.963 90.0801 173.714C90.3372 174.622 90.5723 175.448 90.7692 176.175C88.6911 175.809 85.913 175.617 85.7763 175.606C85.6341 175.595 85.4865 175.634 85.3662 175.716C85.1912 175.831 85.0107 175.995 84.8248 176.181C84.7263 176.093 84.6006 176.022 84.4584 176.011C80.8436 175.666 78.2241 175.874 76.6546 176.634C76.5507 176.684 76.4468 176.744 76.3429 176.804C76.3374 176.782 76.3429 176.76 76.3374 176.738C75.8945 174.961 75.3312 171.248 75.025 168.092C74.7297 165.063 74.7078 154.607 74.9867 150.615C75.014 150.254 74.7406 149.937 74.3797 149.915C74.0133 149.893 73.707 150.161 73.6797 150.522C73.3898 154.656 73.4172 165.074 73.718 168.218C74.0297 171.428 74.6093 175.229 75.0632 177.056C75.107 177.22 75.2109 177.351 75.3421 177.438C74.489 178.051 73.5922 178.822 72.7609 179.533C72.2633 179.959 71.7985 180.359 71.4102 180.665C70.3383 181.507 69.7204 182.415 69.6274 183.29C69.5618 183.891 69.7423 184.476 70.1524 184.974C71.268 186.336 73.1383 186.708 74.9812 185.958C75.9218 186.396 77.1304 186.56 78.2843 186.56C78.9186 186.56 79.5311 186.511 80.078 186.434C80.0725 186.478 80.0561 186.533 80.0506 186.576C80.0069 186.85 80.1327 187.118 80.3733 187.255C80.417 187.276 84.606 189.666 85.9185 190.596C86.0169 190.667 86.1318 190.7 86.2466 190.711C86.2412 190.787 86.2302 190.858 86.2247 190.919C86.0388 192.947 86.8318 193.91 88.9536 194.233C89.6591 194.342 94.1433 195.321 99.6776 196.551C98.2995 196.792 96.7136 197.027 95.155 197.257C94.1871 197.399 93.241 197.541 92.377 197.678C84.0045 199.001 67.429 201.085 64.2025 200.516C60.3635 199.838 57.93 198.345 56.9675 196.075C56.4316 194.823 55.3707 191.279 56.9948 185.499C58.3839 180.566 65.3017 161.191 66.6087 158.577C67.1446 157.511 67.8063 155.613 68.5063 153.606C69.4907 150.795 70.8414 146.945 71.6672 146.223C71.9406 145.983 71.968 145.573 71.7274 145.299C71.4867 145.026 71.0766 144.998 70.8032 145.239C69.7915 146.125 68.747 148.958 67.2704 153.179C66.5814 155.148 65.9306 157.002 65.433 157.997C63.9947 160.868 57.0058 180.627 55.7316 185.155C54.5066 189.508 54.5175 193.68 55.7589 196.6C56.9073 199.302 59.6745 201.057 63.9728 201.818C64.4213 201.9 65.072 201.932 65.8759 201.932C68.3696 201.932 72.3563 201.588 76.5835 201.118C76.939 204.12 77.3163 208.314 77.3163 211.338C77.3163 211.699 77.6116 211.995 77.9726 211.995C78.3335 211.995 78.6288 211.699 78.6288 211.338C78.6288 208.26 78.2515 204.01 77.8905 200.97C83.6162 200.308 89.5278 199.466 92.5793 198.985C93.4379 198.848 94.3785 198.711 95.341 198.564C97.1019 198.301 98.9011 198.033 100.41 197.76C101.094 201.96 101.559 204.683 101.838 206.067C101.898 206.362 102.149 206.581 102.45 206.592C102.461 206.592 102.467 206.592 102.478 206.592C102.767 206.592 103.024 206.4 103.106 206.121C103.637 204.295 104.315 201.725 105.283 197.82C113.213 199.603 121.432 201.489 123.401 201.998C125.189 202.463 127.076 202.884 128.815 202.884C129.865 202.884 130.854 202.72 131.74 202.332C131.516 205.192 131.538 207.472 131.582 211.256V211.486C131.587 211.847 131.877 212.137 132.238 212.137H132.243C132.604 212.131 132.894 211.836 132.894 211.475V211.251C132.85 207.073 132.823 204.743 133.135 201.44C133.31 201.282 133.474 201.107 133.632 200.915C135.694 198.411 137.296 196.349 139.161 192.554C141.967 186.85 143.471 181.409 143.913 178.488C144.22 176.438 144.406 167.89 144.542 161.645C144.603 158.96 144.652 156.647 144.696 155.629C144.87 152.441 143.957 148.914 142.82 148.236ZM96.2542 132.415C96.2488 132.431 96.2378 132.442 96.2378 132.459C96.2324 132.442 96.2214 132.426 96.216 132.41C96.2269 132.41 96.2378 132.41 96.2542 132.415ZM96.1066 133.033C96.1503 132.984 96.1722 132.924 96.1996 132.869C96.0902 134.17 95.5214 136.309 94.9472 138.031C95.1058 136.823 95.341 135.849 95.68 135.193C95.8441 134.87 95.7183 134.477 95.3957 134.307C95.1933 134.203 94.9636 134.225 94.7777 134.329C95.2644 133.919 95.7183 133.492 96.1066 133.033ZM115.821 139.584C115.821 139.579 115.821 139.584 115.821 139.584C115.548 138.097 115.362 136.194 115.34 134.198C116.023 134.542 116.789 134.756 117.576 134.843C117.757 135.056 117.932 135.264 118.101 135.466C118.605 136.057 119.075 136.615 119.611 137.315C119.644 137.359 119.682 137.397 119.726 137.43C119.731 137.539 119.753 137.643 119.813 137.741C122.668 142.297 123.193 152.829 121.727 158.511C120.508 163.247 117.653 171.171 115.52 174.983C115.433 175.141 115.416 175.322 115.46 175.486C114.574 176.815 113.601 178.231 112.994 178.98C112.764 179.259 112.808 179.675 113.092 179.905C113.213 180.003 113.36 180.052 113.502 180.052C113.694 180.052 113.885 179.97 114.011 179.806C115.378 178.116 118.512 173.206 118.544 173.156C119.009 172.429 119.895 171.888 120.617 171.499C120.83 171.385 121.202 171.193 121.667 170.953C123.264 170.127 125.938 168.743 127.185 167.923C127.382 167.792 127.863 167.513 128.043 167.742C128.279 168.032 128.257 168.809 127.923 169.148C127.852 169.219 127.808 169.296 127.776 169.383C127.081 169.7 126.294 170.061 125.517 170.417C123.444 171.357 121.492 172.243 120.858 172.604C119.715 173.244 119.031 174.179 118.424 174.999L118.189 175.316C117.97 175.606 118.03 176.016 118.32 176.235C118.61 176.454 119.02 176.394 119.239 176.104L119.48 175.776C120.032 175.027 120.601 174.25 121.498 173.747C122.083 173.419 124.101 172.5 126.058 171.614C127.896 170.778 129.635 169.99 130.318 169.629C130.969 169.29 131.483 169.328 131.686 169.514C131.74 169.563 131.806 169.651 131.729 169.831C131.341 170.745 131.035 171.04 129.69 171.806C129.17 172.101 127.152 173.047 125.533 173.802C123.991 174.524 123.029 174.972 122.744 175.136C122.039 175.53 121.251 176.284 120.579 177.209C120.365 177.504 120.431 177.914 120.726 178.127C120.841 178.209 120.978 178.253 121.109 178.253C121.312 178.253 121.514 178.16 121.64 177.985C122.197 177.22 122.848 176.585 123.384 176.29C123.647 176.142 124.888 175.563 126.097 174.999C127.825 174.19 129.783 173.277 130.346 172.954C130.679 172.763 130.958 172.593 131.21 172.429C131.226 172.462 131.226 172.495 131.248 172.522C131.642 173.113 131.314 173.752 130.811 174.124C129.875 174.813 127.573 175.628 126.605 175.874C125.845 176.066 124.932 176.837 123.816 177.827C123.57 178.045 123.346 178.242 123.16 178.395C122.881 178.625 122.837 179.041 123.067 179.32C123.198 179.478 123.384 179.56 123.576 179.56C123.723 179.56 123.871 179.511 123.991 179.413C124.188 179.254 124.423 179.041 124.686 178.811C125.331 178.237 126.414 177.28 126.922 177.148C127.234 177.072 127.841 176.886 128.541 176.634C128.476 177.127 127.01 178.576 126.244 178.893C126.108 178.953 125.993 179.057 125.916 179.188C125.369 180.205 124.445 181.141 123.089 182.043C123.023 182.087 122.969 182.147 122.925 182.207C120.847 181.78 115.438 180.61 109.86 179.396C109.975 179.314 110.063 179.194 110.101 179.046L110.238 178.559C113.349 167.431 118.036 150.658 115.821 139.584ZM105.469 151.55C109.078 151.55 112.627 150.844 114.968 149.412C114.334 159.004 111.238 170.105 108.98 178.177L108.843 178.663C108.794 178.838 108.821 179.013 108.903 179.155C104.955 178.291 101.012 177.422 98.1956 176.798C98.4253 176.656 98.5511 176.388 98.4964 176.115C97.7472 172.451 95.68 159.605 94.9582 149.089C97.5448 150.719 101.537 151.55 105.469 151.55ZM88.8989 163.592C87.838 158.145 85.6232 146.814 90.1731 137.78C90.277 137.572 90.2497 137.337 90.1403 137.151C90.2059 137.173 90.277 137.189 90.3481 137.189C90.4629 137.189 90.5833 137.156 90.6926 137.091L91.1848 136.79C92.2567 136.134 93.5035 135.368 94.6082 134.466C94.5754 134.504 94.5371 134.537 94.5152 134.581C91.1465 141.116 96.3527 172.177 97.2113 176.372C97.2277 176.454 97.2605 176.531 97.3042 176.596C95.5707 176.208 94.4113 175.94 94.1816 175.874C93.5801 175.705 92.8363 175.759 92.0707 176.099C92.0762 176.027 92.0762 175.956 92.0598 175.88C91.8629 175.136 91.6223 174.288 91.3543 173.353C90.5778 170.635 89.6153 167.245 88.8989 163.592ZM80.2585 185.1C78.7218 185.368 76.5288 185.357 75.3531 184.679C75.1671 184.575 74.9375 184.564 74.7461 184.657C73.0727 185.45 71.7821 184.887 71.1914 184.159C71.0055 183.93 70.9289 183.705 70.9563 183.448C71.011 182.94 71.4703 182.322 72.2469 181.709C72.657 181.387 73.1328 180.977 73.6414 180.539C74.7898 179.549 76.2171 178.324 77.2452 177.821C78.514 177.203 80.8272 177.023 83.9334 177.285C82.5389 179.27 81.1116 182.497 80.4061 185.094C80.3624 185.1 80.3131 185.094 80.2585 185.1ZM86.4435 189.365C85.1693 188.501 82.4787 186.948 81.4506 186.363C82.1287 183.087 84.4693 178.171 85.9404 176.946C86.6294 177.001 88.6747 177.165 90.3098 177.438C90.0364 177.745 89.7739 178.089 89.5278 178.488C87.8653 181.195 86.8591 186.522 86.4435 189.365ZM102.642 203.01C102.396 201.593 102.095 199.767 101.728 197.525C102.018 197.465 102.292 197.404 102.543 197.339C102.614 197.322 102.674 197.284 102.729 197.251C103.161 197.35 103.599 197.448 104.036 197.547C103.484 199.767 103.03 201.555 102.642 203.01Z" fill="#475658"/>
<path d="M111.285 122.38C111.244 122.38 111.199 122.37 111.157 122.349C109.159 121.393 105.88 121.123 103.999 121.759C103.775 121.836 103.555 121.627 103.503 121.301C103.451 120.971 103.592 120.645 103.813 120.569C105.849 119.882 109.256 120.162 111.409 121.189C111.626 121.291 111.746 121.637 111.674 121.958C111.622 122.217 111.461 122.38 111.285 122.38Z" fill="#475658"/>
<rect x="36.5" y="22.5" width="145" height="39" rx="19.5" fill="white" stroke="#E0E0E0"/>
<path d="M59.308 39H58.612C58.5347 39 58.468 38.98 58.412 38.94C58.3587 38.8973 58.308 38.836 58.26 38.756L56.744 36.656C56.6747 36.552 56.6 36.48 56.52 36.44C56.44 36.3973 56.3307 36.376 56.192 36.376H55.504V39H54.732V33.268H55.504V35.78H56.1C56.22 35.78 56.3213 35.7613 56.404 35.724C56.4893 35.6867 56.5733 35.6133 56.656 35.504L58.156 33.488C58.196 33.424 58.244 33.372 58.3 33.332C58.3587 33.2893 58.4267 33.268 58.504 33.268H59.156L57.424 35.624C57.2933 35.808 57.1253 35.9347 56.92 36.004C57.0613 36.0413 57.18 36.1013 57.276 36.184C57.3747 36.264 57.468 36.376 57.556 36.52L59.308 39ZM62.0647 37.176C61.7367 37.1867 61.4567 37.2133 61.2247 37.256C60.9954 37.296 60.8074 37.3493 60.6607 37.416C60.5167 37.4827 60.4114 37.5613 60.3447 37.652C60.2807 37.7427 60.2487 37.844 60.2487 37.956C60.2487 38.0627 60.266 38.1547 60.3007 38.232C60.3354 38.3093 60.382 38.3733 60.4407 38.424C60.502 38.472 60.5727 38.508 60.6527 38.532C60.7354 38.5533 60.8234 38.564 60.9167 38.564C61.042 38.564 61.1567 38.552 61.2607 38.528C61.3647 38.5013 61.462 38.464 61.5527 38.416C61.646 38.368 61.734 38.3107 61.8167 38.244C61.902 38.1773 61.9847 38.1013 62.0647 38.016V37.176ZM59.7647 35.52C59.9887 35.304 60.23 35.1427 60.4887 35.036C60.7474 34.9293 61.034 34.876 61.3487 34.876C61.5754 34.876 61.7767 34.9133 61.9527 34.988C62.1287 35.0627 62.2767 35.1667 62.3967 35.3C62.5167 35.4333 62.6074 35.5947 62.6687 35.784C62.73 35.9733 62.7607 36.1813 62.7607 36.408V39H62.4447C62.3754 39 62.322 38.9893 62.2847 38.968C62.2474 38.944 62.218 38.8987 62.1967 38.832L62.1167 38.448C62.01 38.5467 61.906 38.6347 61.8047 38.712C61.7034 38.7867 61.5967 38.8507 61.4847 38.904C61.3727 38.9547 61.2527 38.9933 61.1247 39.02C60.9994 39.0493 60.8594 39.064 60.7047 39.064C60.5474 39.064 60.3994 39.0427 60.2607 39C60.122 38.9547 60.0007 38.888 59.8967 38.8C59.7954 38.712 59.714 38.6013 59.6527 38.468C59.594 38.332 59.5647 38.172 59.5647 37.988C59.5647 37.828 59.6087 37.6747 59.6967 37.528C59.7847 37.3787 59.9274 37.2467 60.1247 37.132C60.322 37.0173 60.5794 36.924 60.8967 36.852C61.214 36.7773 61.6034 36.7347 62.0647 36.724V36.408C62.0647 36.0933 61.9967 35.856 61.8607 35.696C61.7247 35.5333 61.526 35.452 61.2647 35.452C61.0887 35.452 60.9407 35.4747 60.8207 35.52C60.7034 35.5627 60.6007 35.612 60.5127 35.668C60.4274 35.7213 60.3527 35.7707 60.2887 35.816C60.2274 35.8587 60.166 35.88 60.1047 35.88C60.0567 35.88 60.0154 35.868 59.9807 35.844C59.946 35.8173 59.9167 35.7853 59.8927 35.748L59.7647 35.52ZM66.3053 35.148C66.3426 35.0893 66.3919 35.0413 66.4533 35.004C66.5146 34.9667 66.5799 34.948 66.6493 34.948H67.2053L66.1533 36.492C66.0893 36.5907 66.0226 36.672 65.9533 36.736C65.8839 36.7973 65.7986 36.8453 65.6973 36.88C65.8253 36.9147 65.9333 36.9693 66.0213 37.044C66.1093 37.116 66.1879 37.2093 66.2573 37.324L67.3212 39H66.8253C66.6973 39 66.5986 38.9787 66.5293 38.936C66.4599 38.8933 66.3999 38.832 66.3493 38.752L65.5613 37.492C65.4359 37.284 65.2479 37.18 64.9973 37.18H64.5613V39.004H63.8453V34.948H64.5613V36.7H64.9453C65.1586 36.7 65.3253 36.6093 65.4453 36.428L66.3053 35.148ZM71.4619 34.948V39H70.7499V36.248C70.7499 36.1947 70.7525 36.1373 70.7579 36.076C70.7632 36.0147 70.7699 35.9533 70.7779 35.892C70.7539 35.9453 70.7299 35.9947 70.7059 36.04C70.6819 36.0853 70.6565 36.1267 70.6299 36.164L68.6739 38.824C68.6445 38.8667 68.6072 38.908 68.5619 38.948C68.5192 38.9853 68.4712 39.004 68.4179 39.004H67.9859V34.952H68.7019V37.704C68.7019 37.7547 68.6992 37.8107 68.6939 37.872C68.6885 37.9307 68.6819 37.9907 68.6739 38.052C68.6979 38.0013 68.7219 37.9547 68.7459 37.912C68.7699 37.8667 68.7939 37.8253 68.8179 37.788L70.7739 35.128C70.8032 35.0853 70.8405 35.0453 70.8859 35.008C70.9312 34.968 70.9805 34.948 71.0339 34.948H71.4619ZM75.2994 36.532C75.2994 36.3667 75.2754 36.216 75.2274 36.08C75.1821 35.9413 75.1141 35.8227 75.0234 35.724C74.9354 35.6227 74.8274 35.5453 74.6994 35.492C74.5714 35.436 74.4261 35.408 74.2634 35.408C73.9221 35.408 73.6514 35.508 73.4514 35.708C73.2541 35.9053 73.1314 36.18 73.0834 36.532H75.2994ZM75.8754 38.432C75.7874 38.5387 75.6821 38.632 75.5594 38.712C75.4368 38.7893 75.3048 38.8533 75.1634 38.904C75.0248 38.9547 74.8808 38.992 74.7314 39.016C74.5821 39.0427 74.4341 39.056 74.2874 39.056C74.0074 39.056 73.7488 39.0093 73.5114 38.916C73.2768 38.82 73.0728 38.6813 72.8994 38.5C72.7288 38.316 72.5954 38.0893 72.4994 37.82C72.4034 37.5507 72.3554 37.2413 72.3554 36.892C72.3554 36.6093 72.3981 36.3453 72.4834 36.1C72.5714 35.8547 72.6968 35.6427 72.8594 35.464C73.0221 35.2827 73.2208 35.1413 73.4554 35.04C73.6901 34.936 73.9541 34.884 74.2474 34.884C74.4901 34.884 74.7141 34.9253 74.9194 35.008C75.1274 35.088 75.3061 35.2053 75.4554 35.36C75.6074 35.512 75.7261 35.7013 75.8114 35.928C75.8968 36.152 75.9394 36.408 75.9394 36.696C75.9394 36.808 75.9274 36.8827 75.9034 36.92C75.8794 36.9573 75.8341 36.976 75.7674 36.976H73.0594C73.0674 37.232 73.1021 37.4547 73.1634 37.644C73.2274 37.8333 73.3154 37.992 73.4274 38.12C73.5394 38.2453 73.6728 38.34 73.8274 38.404C73.9821 38.4653 74.1554 38.496 74.3474 38.496C74.5261 38.496 74.6794 38.476 74.8074 38.436C74.9381 38.3933 75.0501 38.348 75.1434 38.3C75.2368 38.252 75.3141 38.208 75.3754 38.168C75.4394 38.1253 75.4941 38.104 75.5394 38.104C75.5981 38.104 75.6434 38.1267 75.6754 38.172L75.8754 38.432ZM81.6529 38.48V35.508H80.3689C80.3422 35.924 80.3049 36.292 80.2569 36.612C80.2089 36.932 80.1529 37.2133 80.0889 37.456C80.0275 37.696 79.9582 37.9 79.8809 38.068C79.8062 38.236 79.7275 38.3733 79.6449 38.48H81.6529ZM83.0849 38.46V40.176C83.0849 40.2453 83.0649 40.2987 83.0249 40.336C82.9875 40.376 82.9382 40.396 82.8769 40.396H82.4409V39H79.0329V40.192C79.0329 40.2427 79.0169 40.2893 78.9849 40.332C78.9555 40.3747 78.9062 40.396 78.8369 40.396H78.3889V38.48H78.5209C78.6142 38.48 78.7062 38.464 78.7969 38.432C78.8902 38.4 78.9795 38.34 79.0649 38.252C79.1502 38.1613 79.2302 38.0347 79.3049 37.872C79.3822 37.7093 79.4515 37.4973 79.5129 37.236C79.5742 36.9747 79.6275 36.6573 79.6729 36.284C79.7182 35.908 79.7542 35.4627 79.7809 34.948H82.3449V38.46H83.0849ZM85.4439 34.884C85.7399 34.884 86.0065 34.9333 86.2439 35.032C86.4812 35.1307 86.6839 35.2707 86.8519 35.452C87.0199 35.6333 87.1479 35.8533 87.2359 36.112C87.3265 36.368 87.3719 36.6547 87.3719 36.972C87.3719 37.292 87.3265 37.58 87.2359 37.836C87.1479 38.092 87.0199 38.3107 86.8519 38.492C86.6839 38.6733 86.4812 38.8133 86.2439 38.912C86.0065 39.008 85.7399 39.056 85.4439 39.056C85.1452 39.056 84.8759 39.008 84.6359 38.912C84.3985 38.8133 84.1959 38.6733 84.0279 38.492C83.8599 38.3107 83.7305 38.092 83.6399 37.836C83.5519 37.58 83.5079 37.292 83.5079 36.972C83.5079 36.6547 83.5519 36.368 83.6399 36.112C83.7305 35.8533 83.8599 35.6333 84.0279 35.452C84.1959 35.2707 84.3985 35.1307 84.6359 35.032C84.8759 34.9333 85.1452 34.884 85.4439 34.884ZM85.4439 38.5C85.8439 38.5 86.1425 38.3667 86.3399 38.1C86.5372 37.8307 86.6359 37.456 86.6359 36.976C86.6359 36.4933 86.5372 36.1173 86.3399 35.848C86.1425 35.5787 85.8439 35.444 85.4439 35.444C85.2412 35.444 85.0639 35.4787 84.9119 35.548C84.7625 35.6173 84.6372 35.7173 84.5359 35.848C84.4372 35.9787 84.3625 36.14 84.3119 36.332C84.2639 36.5213 84.2399 36.736 84.2399 36.976C84.2399 37.456 84.3385 37.8307 84.5359 38.1C84.7359 38.3667 85.0385 38.5 85.4439 38.5ZM90.7349 35.148C90.7723 35.0893 90.8216 35.0413 90.8829 35.004C90.9443 34.9667 91.0096 34.948 91.0789 34.948H91.6349L90.5829 36.492C90.5189 36.5907 90.4523 36.672 90.3829 36.736C90.3136 36.7973 90.2283 36.8453 90.1269 36.88C90.2549 36.9147 90.3629 36.9693 90.4509 37.044C90.5389 37.116 90.6176 37.2093 90.6869 37.324L91.7509 39H91.2549C91.1269 39 91.0283 38.9787 90.9589 38.936C90.8896 38.8933 90.8296 38.832 90.7789 38.752L89.9909 37.492C89.8656 37.284 89.6776 37.18 89.4269 37.18H88.9909V39.004H88.2749V34.948H88.9909V36.7H89.3749C89.5883 36.7 89.7549 36.6093 89.8749 36.428L90.7349 35.148ZM95.9116 34.948L93.6516 40.196C93.6276 40.2493 93.5969 40.292 93.5596 40.324C93.5249 40.356 93.4702 40.372 93.3956 40.372H92.8676L93.6076 38.764L91.9356 34.948H92.5516C92.6129 34.948 92.6609 34.964 92.6956 34.996C92.7329 35.0253 92.7582 35.0587 92.7716 35.096L93.8556 37.648C93.8982 37.76 93.9342 37.8773 93.9636 38C94.0009 37.8747 94.0409 37.756 94.0836 37.644L95.1356 35.096C95.1516 35.0533 95.1782 35.0187 95.2156 34.992C95.2556 34.9627 95.2996 34.948 95.3476 34.948H95.9116ZM101.057 34.936V39H100.413V36.308C100.413 36.2333 100.417 36.1507 100.425 36.06C100.435 35.9667 100.449 35.88 100.465 35.8L99.0566 38.268C99.0352 38.308 99.0072 38.34 98.9726 38.364C98.9379 38.388 98.8979 38.4 98.8526 38.4H98.7726C98.7272 38.4 98.6859 38.388 98.6486 38.364C98.6139 38.34 98.5859 38.308 98.5646 38.268L97.1326 35.792C97.1459 35.872 97.1579 35.96 97.1686 36.056C97.1792 36.1493 97.1846 36.2333 97.1846 36.308V39H96.5406V34.936H97.1126C97.1632 34.936 97.2126 34.948 97.2606 34.972C97.3086 34.9933 97.3499 35.0347 97.3846 35.096L98.6486 37.208C98.7099 37.3307 98.7646 37.46 98.8126 37.596C98.8579 37.4547 98.9112 37.3253 98.9726 37.208L100.213 35.096C100.247 35.032 100.289 34.9893 100.337 34.968C100.385 34.9467 100.434 34.936 100.485 34.936H101.057ZM104.893 36.532C104.893 36.3667 104.869 36.216 104.821 36.08C104.776 35.9413 104.708 35.8227 104.617 35.724C104.529 35.6227 104.421 35.5453 104.293 35.492C104.165 35.436 104.02 35.408 103.857 35.408C103.516 35.408 103.245 35.508 103.045 35.708C102.848 35.9053 102.725 36.18 102.677 36.532H104.893ZM105.469 38.432C105.381 38.5387 105.276 38.632 105.153 38.712C105.031 38.7893 104.899 38.8533 104.757 38.904C104.619 38.9547 104.475 38.992 104.325 39.016C104.176 39.0427 104.028 39.056 103.881 39.056C103.601 39.056 103.343 39.0093 103.105 38.916C102.871 38.82 102.667 38.6813 102.493 38.5C102.323 38.316 102.189 38.0893 102.093 37.82C101.997 37.5507 101.949 37.2413 101.949 36.892C101.949 36.6093 101.992 36.3453 102.077 36.1C102.165 35.8547 102.291 35.6427 102.453 35.464C102.616 35.2827 102.815 35.1413 103.049 35.04C103.284 34.936 103.548 34.884 103.841 34.884C104.084 34.884 104.308 34.9253 104.513 35.008C104.721 35.088 104.9 35.2053 105.049 35.36C105.201 35.512 105.32 35.7013 105.405 35.928C105.491 36.152 105.533 36.408 105.533 36.696C105.533 36.808 105.521 36.8827 105.497 36.92C105.473 36.9573 105.428 36.976 105.361 36.976H102.653C102.661 37.232 102.696 37.4547 102.757 37.644C102.821 37.8333 102.909 37.992 103.021 38.12C103.133 38.2453 103.267 38.34 103.421 38.404C103.576 38.4653 103.749 38.496 103.941 38.496C104.12 38.496 104.273 38.476 104.401 38.436C104.532 38.3933 104.644 38.348 104.737 38.3C104.831 38.252 104.908 38.208 104.969 38.168C105.033 38.1253 105.088 38.104 105.133 38.104C105.192 38.104 105.237 38.1267 105.269 38.172L105.469 38.432ZM109.784 34.948V39H109.068V37.104H107.124V39H106.408V34.948H107.124V36.564H109.068V34.948H109.784ZM114.284 35.492H112.728V39H112.016V35.492H110.46V34.948H114.284V35.492ZM116.518 38.48C116.662 38.48 116.786 38.4627 116.89 38.428C116.997 38.3907 117.085 38.34 117.154 38.276C117.224 38.2093 117.276 38.132 117.31 38.044C117.345 37.956 117.362 37.86 117.362 37.756C117.362 37.66 117.348 37.5707 117.318 37.488C117.289 37.4027 117.24 37.328 117.17 37.264C117.104 37.2 117.016 37.1493 116.906 37.112C116.797 37.0747 116.664 37.056 116.506 37.056H115.642V38.48H116.518ZM116.506 36.536C116.786 36.536 117.021 36.5693 117.21 36.636C117.402 36.7027 117.556 36.792 117.67 36.904C117.788 37.016 117.872 37.1453 117.922 37.292C117.973 37.4387 117.998 37.5907 117.998 37.748C117.998 37.9293 117.966 38.0973 117.902 38.252C117.838 38.404 117.744 38.536 117.618 38.648C117.493 38.7573 117.338 38.844 117.154 38.908C116.97 38.9693 116.758 39 116.518 39H114.962V34.948H115.642V36.536H116.506ZM119.602 34.948V39H118.89V34.948H119.602ZM127.299 34.936V39H126.655V36.308C126.655 36.2333 126.659 36.1507 126.667 36.06C126.677 35.9667 126.691 35.88 126.707 35.8L125.299 38.268C125.277 38.308 125.249 38.34 125.215 38.364C125.18 38.388 125.14 38.4 125.095 38.4H125.015C124.969 38.4 124.928 38.388 124.891 38.364C124.856 38.34 124.828 38.308 124.807 38.268L123.375 35.792C123.388 35.872 123.4 35.96 123.411 36.056C123.421 36.1493 123.427 36.2333 123.427 36.308V39H122.783V34.936H123.355C123.405 34.936 123.455 34.948 123.503 34.972C123.551 34.9933 123.592 35.0347 123.627 35.096L124.891 37.208C124.952 37.3307 125.007 37.46 125.055 37.596C125.1 37.4547 125.153 37.3253 125.215 37.208L126.455 35.096C126.489 35.032 126.531 34.9893 126.579 34.968C126.627 34.9467 126.676 34.936 126.727 34.936H127.299ZM131.799 34.948V39H131.083V37.104H129.139V39H128.423V34.948H129.139V36.564H131.083V34.948H131.799ZM135.643 36.532C135.643 36.3667 135.619 36.216 135.571 36.08C135.526 35.9413 135.458 35.8227 135.367 35.724C135.279 35.6227 135.171 35.5453 135.043 35.492C134.915 35.436 134.77 35.408 134.607 35.408C134.266 35.408 133.995 35.508 133.795 35.708C133.598 35.9053 133.475 36.18 133.427 36.532H135.643ZM136.219 38.432C136.131 38.5387 136.026 38.632 135.903 38.712C135.781 38.7893 135.649 38.8533 135.507 38.904C135.369 38.9547 135.225 38.992 135.075 39.016C134.926 39.0427 134.778 39.056 134.631 39.056C134.351 39.056 134.093 39.0093 133.855 38.916C133.621 38.82 133.417 38.6813 133.243 38.5C133.073 38.316 132.939 38.0893 132.843 37.82C132.747 37.5507 132.699 37.2413 132.699 36.892C132.699 36.6093 132.742 36.3453 132.827 36.1C132.915 35.8547 133.041 35.6427 133.203 35.464C133.366 35.2827 133.565 35.1413 133.799 35.04C134.034 34.936 134.298 34.884 134.591 34.884C134.834 34.884 135.058 34.9253 135.263 35.008C135.471 35.088 135.65 35.2053 135.799 35.36C135.951 35.512 136.07 35.7013 136.155 35.928C136.241 36.152 136.283 36.408 136.283 36.696C136.283 36.808 136.271 36.8827 136.247 36.92C136.223 36.9573 136.178 36.976 136.111 36.976H133.403C133.411 37.232 133.446 37.4547 133.507 37.644C133.571 37.8333 133.659 37.992 133.771 38.12C133.883 38.2453 134.017 38.34 134.171 38.404C134.326 38.4653 134.499 38.496 134.691 38.496C134.87 38.496 135.023 38.476 135.151 38.436C135.282 38.3933 135.394 38.348 135.487 38.3C135.581 38.252 135.658 38.208 135.719 38.168C135.783 38.1253 135.838 38.104 135.883 38.104C135.942 38.104 135.987 38.1267 136.019 38.172L136.219 38.432ZM142.581 34.948V39H141.865V37.104H139.921V39H139.205V34.948H139.921V36.564H141.865V34.948H142.581ZM147.208 34.948L144.948 40.196C144.924 40.2493 144.894 40.292 144.856 40.324C144.822 40.356 144.767 40.372 144.692 40.372H144.164L144.904 38.764L143.232 34.948H143.848C143.91 34.948 143.958 34.964 143.992 34.996C144.03 35.0253 144.055 35.0587 144.068 35.096L145.152 37.648C145.195 37.76 145.231 37.8773 145.26 38C145.298 37.8747 145.338 37.756 145.38 37.644L146.432 35.096C146.448 35.0533 146.475 35.0187 146.512 34.992C146.552 34.9627 146.596 34.948 146.644 34.948H147.208ZM153.477 39H152.981C152.853 39 152.755 38.98 152.685 38.94C152.619 38.9 152.567 38.8373 152.529 38.752L151.741 37.492C151.611 37.284 151.423 37.18 151.177 37.18H150.769V39.004H150.077V37.18H149.673C149.553 37.18 149.444 37.2067 149.345 37.26C149.249 37.3133 149.171 37.3907 149.109 37.492L148.321 38.752C148.281 38.8373 148.227 38.9 148.157 38.94C148.091 38.98 147.993 39 147.865 39H147.373L148.437 37.324C148.507 37.2067 148.585 37.112 148.673 37.04C148.761 36.968 148.869 36.9133 148.997 36.876C148.896 36.844 148.809 36.7973 148.737 36.736C148.668 36.672 148.603 36.5907 148.541 36.492L147.485 34.948H148.045C148.115 34.948 148.177 34.9667 148.233 35.004C148.289 35.0387 148.333 35.0867 148.365 35.148L149.225 36.428C149.284 36.516 149.355 36.584 149.437 36.632C149.52 36.6773 149.617 36.7 149.729 36.7H150.077V34.948H150.769V36.7H151.109C151.336 36.7 151.507 36.6093 151.621 36.428L152.481 35.148C152.513 35.0867 152.557 35.0387 152.613 35.004C152.672 34.9667 152.736 34.948 152.805 34.948H153.365L152.309 36.492C152.248 36.5907 152.181 36.672 152.109 36.736C152.04 36.7973 151.955 36.844 151.853 36.876C151.981 36.9133 152.089 36.968 152.177 37.04C152.265 37.112 152.344 37.2067 152.413 37.324L153.477 39ZM157.518 34.948V39H156.802V37.104H154.858V39H154.142V34.948H154.858V36.564H156.802V34.948H157.518ZM160.206 38.48C160.35 38.48 160.474 38.4627 160.578 38.428C160.685 38.3907 160.773 38.34 160.842 38.276C160.911 38.2093 160.963 38.132 160.998 38.044C161.033 37.956 161.05 37.86 161.05 37.756C161.05 37.66 161.035 37.5707 161.006 37.488C160.977 37.4027 160.927 37.328 160.858 37.264C160.791 37.2 160.703 37.1493 160.594 37.112C160.485 37.0747 160.351 37.056 160.194 37.056H159.33V38.48H160.206ZM160.194 36.536C160.474 36.536 160.709 36.5693 160.898 36.636C161.09 36.7027 161.243 36.792 161.358 36.904C161.475 37.016 161.559 37.1453 161.61 37.292C161.661 37.4387 161.686 37.5907 161.686 37.748C161.686 37.9293 161.654 38.0973 161.59 38.252C161.526 38.404 161.431 38.536 161.306 38.648C161.181 38.7573 161.026 38.844 160.842 38.908C160.658 38.9693 160.446 39 160.206 39H158.65V34.948H159.33V36.536H160.194ZM163.29 34.948V39H162.578V34.948H163.29ZM57.356 49.48V46.508H56.072C56.0453 46.924 56.008 47.292 55.96 47.612C55.912 47.932 55.856 48.2133 55.792 48.456C55.7307 48.696 55.6613 48.9 55.584 49.068C55.5093 49.236 55.4307 49.3733 55.348 49.48H57.356ZM58.788 49.46V51.176C58.788 51.2453 58.768 51.2987 58.728 51.336C58.6907 51.376 58.6413 51.396 58.58 51.396H58.144V50H54.736V51.192C54.736 51.2427 54.72 51.2893 54.688 51.332C54.6587 51.3747 54.6093 51.396 54.54 51.396H54.092V49.48H54.224C54.3173 49.48 54.4093 49.464 54.5 49.432C54.5933 49.4 54.6827 49.34 54.768 49.252C54.8533 49.1613 54.9333 49.0347 55.008 48.872C55.0853 48.7093 55.1547 48.4973 55.216 48.236C55.2773 47.9747 55.3307 47.6573 55.376 47.284C55.4213 46.908 55.4573 46.4627 55.484 45.948H58.048V49.46H58.788ZM63.0613 50H62.3493V46.508H61.0693C61.0373 47.0227 60.9893 47.468 60.9253 47.844C60.8613 48.2173 60.784 48.536 60.6933 48.8C60.6053 49.0613 60.5053 49.2747 60.3933 49.44C60.284 49.6027 60.168 49.7293 60.0453 49.82C59.9253 49.9107 59.8 49.972 59.6693 50.004C59.5413 50.036 59.4133 50.052 59.2853 50.052C59.0586 50.052 58.9453 50.016 58.9453 49.944V49.492H59.1533C59.244 49.492 59.336 49.476 59.4293 49.444C59.5226 49.412 59.6133 49.3507 59.7013 49.26C59.792 49.1693 59.8786 49.0427 59.9613 48.88C60.044 48.7147 60.1186 48.5013 60.1853 48.24C60.2546 47.976 60.3133 47.6573 60.3613 47.284C60.412 46.908 60.4506 46.4627 60.4773 45.948H63.0613V50ZM66.321 47.84V46.428H65.641C65.489 46.428 65.361 46.4507 65.257 46.496C65.153 46.5387 65.069 46.5947 65.005 46.664C64.9437 46.7307 64.8997 46.8067 64.873 46.892C64.8463 46.9747 64.833 47.0573 64.833 47.14C64.833 47.3587 64.913 47.5307 65.073 47.656C65.233 47.7787 65.4517 47.84 65.729 47.84H66.321ZM67.001 45.948V50H66.321V48.292H66.009C65.9343 48.292 65.8717 48.2987 65.821 48.312C65.773 48.3227 65.7303 48.3387 65.693 48.36C65.6583 48.3813 65.6277 48.4093 65.601 48.444C65.5743 48.476 65.5463 48.5133 65.517 48.556L64.629 49.752C64.5837 49.8373 64.5277 49.9 64.461 49.94C64.397 49.98 64.3023 50 64.177 50H63.681L64.857 48.472C64.953 48.312 65.0797 48.2053 65.237 48.152C65.0317 48.1253 64.8583 48.0773 64.717 48.008C64.5757 47.9387 64.4597 47.8573 64.369 47.764C64.281 47.668 64.217 47.5627 64.177 47.448C64.137 47.3333 64.117 47.2173 64.117 47.1C64.117 46.9613 64.1437 46.8227 64.197 46.684C64.253 46.5453 64.341 46.4227 64.461 46.316C64.581 46.2067 64.7357 46.1187 64.925 46.052C65.117 45.9827 65.349 45.948 65.621 45.948H67.001ZM73.5572 50H72.8412V46.492H70.8972V50H70.1812V45.948H73.5572V50ZM75.405 49.024C75.5357 49.2 75.6783 49.324 75.833 49.396C75.9877 49.468 76.161 49.504 76.353 49.504C76.7317 49.504 77.0223 49.3693 77.225 49.1C77.4277 48.8307 77.529 48.4467 77.529 47.948C77.529 47.684 77.505 47.4573 77.457 47.268C77.4117 47.0787 77.345 46.924 77.257 46.804C77.169 46.6813 77.061 46.592 76.933 46.536C76.805 46.48 76.6597 46.452 76.497 46.452C76.265 46.452 76.061 46.5053 75.885 46.612C75.7117 46.7187 75.5517 46.8693 75.405 47.064V49.024ZM75.369 46.576C75.5397 46.3653 75.737 46.196 75.961 46.068C76.185 45.94 76.441 45.876 76.729 45.876C76.9637 45.876 77.1757 45.9213 77.365 46.012C77.5543 46.1 77.7157 46.232 77.849 46.408C77.9823 46.5813 78.085 46.7973 78.157 47.056C78.229 47.3147 78.265 47.612 78.265 47.948C78.265 48.2467 78.225 48.5253 78.145 48.784C78.065 49.04 77.949 49.2627 77.797 49.452C77.6477 49.6387 77.4637 49.7867 77.245 49.896C77.029 50.0027 76.785 50.056 76.513 50.056C76.265 50.056 76.0517 50.0147 75.873 49.932C75.697 49.8467 75.541 49.7293 75.405 49.58V51.372H74.689V45.948H75.117C75.2183 45.948 75.281 45.9973 75.305 46.096L75.369 46.576ZM80.8736 45.884C81.1696 45.884 81.4362 45.9333 81.6736 46.032C81.9109 46.1307 82.1136 46.2707 82.2816 46.452C82.4496 46.6333 82.5776 46.8533 82.6656 47.112C82.7562 47.368 82.8016 47.6547 82.8016 47.972C82.8016 48.292 82.7562 48.58 82.6656 48.836C82.5776 49.092 82.4496 49.3107 82.2816 49.492C82.1136 49.6733 81.9109 49.8133 81.6736 49.912C81.4362 50.008 81.1696 50.056 80.8736 50.056C80.5749 50.056 80.3056 50.008 80.0656 49.912C79.8282 49.8133 79.6256 49.6733 79.4576 49.492C79.2896 49.3107 79.1602 49.092 79.0696 48.836C78.9816 48.58 78.9376 48.292 78.9376 47.972C78.9376 47.6547 78.9816 47.368 79.0696 47.112C79.1602 46.8533 79.2896 46.6333 79.4576 46.452C79.6256 46.2707 79.8282 46.1307 80.0656 46.032C80.3056 45.9333 80.5749 45.884 80.8736 45.884ZM80.8736 49.5C81.2736 49.5 81.5722 49.3667 81.7696 49.1C81.9669 48.8307 82.0656 48.456 82.0656 47.976C82.0656 47.4933 81.9669 47.1173 81.7696 46.848C81.5722 46.5787 81.2736 46.444 80.8736 46.444C80.6709 46.444 80.4936 46.4787 80.3416 46.548C80.1922 46.6173 80.0669 46.7173 79.9656 46.848C79.8669 46.9787 79.7922 47.14 79.7416 47.332C79.6936 47.5213 79.6696 47.736 79.6696 47.976C79.6696 48.456 79.7682 48.8307 79.9656 49.1C80.1656 49.3667 80.4682 49.5 80.8736 49.5ZM86.3482 49.48V46.508H85.0642C85.0375 46.924 85.0002 47.292 84.9522 47.612C84.9042 47.932 84.8482 48.2133 84.7842 48.456C84.7229 48.696 84.6535 48.9 84.5762 49.068C84.5015 49.236 84.4229 49.3733 84.3402 49.48H86.3482ZM87.7802 49.46V51.176C87.7802 51.2453 87.7602 51.2987 87.7202 51.336C87.6829 51.376 87.6335 51.396 87.5722 51.396H87.1362V50H83.7282V51.192C83.7282 51.2427 83.7122 51.2893 83.6802 51.332C83.6509 51.3747 83.6015 51.396 83.5322 51.396H83.0842V49.48H83.2162C83.3095 49.48 83.4015 49.464 83.4922 49.432C83.5855 49.4 83.6749 49.34 83.7602 49.252C83.8455 49.1613 83.9255 49.0347 84.0002 48.872C84.0775 48.7093 84.1469 48.4973 84.2082 48.236C84.2695 47.9747 84.3229 47.6573 84.3682 47.284C84.4135 46.908 84.4495 46.4627 84.4762 45.948H87.0402V49.46H87.7802ZM90.6975 48.176C90.3695 48.1867 90.0895 48.2133 89.8575 48.256C89.6282 48.296 89.4402 48.3493 89.2935 48.416C89.1495 48.4827 89.0442 48.5613 88.9775 48.652C88.9135 48.7427 88.8815 48.844 88.8815 48.956C88.8815 49.0627 88.8988 49.1547 88.9335 49.232C88.9682 49.3093 89.0148 49.3733 89.0735 49.424C89.1348 49.472 89.2055 49.508 89.2855 49.532C89.3682 49.5533 89.4562 49.564 89.5495 49.564C89.6748 49.564 89.7895 49.552 89.8935 49.528C89.9975 49.5013 90.0948 49.464 90.1855 49.416C90.2788 49.368 90.3668 49.3107 90.4495 49.244C90.5348 49.1773 90.6175 49.1013 90.6975 49.016V48.176ZM88.3975 46.52C88.6215 46.304 88.8628 46.1427 89.1215 46.036C89.3802 45.9293 89.6668 45.876 89.9815 45.876C90.2082 45.876 90.4095 45.9133 90.5855 45.988C90.7615 46.0627 90.9095 46.1667 91.0295 46.3C91.1495 46.4333 91.2402 46.5947 91.3015 46.784C91.3628 46.9733 91.3935 47.1813 91.3935 47.408V50H91.0775C91.0082 50 90.9548 49.9893 90.9175 49.968C90.8802 49.944 90.8508 49.8987 90.8295 49.832L90.7495 49.448C90.6428 49.5467 90.5388 49.6347 90.4375 49.712C90.3362 49.7867 90.2295 49.8507 90.1175 49.904C90.0055 49.9547 89.8855 49.9933 89.7575 50.02C89.6322 50.0493 89.4922 50.064 89.3375 50.064C89.1802 50.064 89.0322 50.0427 88.8935 50C88.7548 49.9547 88.6335 49.888 88.5295 49.8C88.4282 49.712 88.3468 49.6013 88.2855 49.468C88.2268 49.332 88.1975 49.172 88.1975 48.988C88.1975 48.828 88.2415 48.6747 88.3295 48.528C88.4175 48.3787 88.5602 48.2467 88.7575 48.132C88.9548 48.0173 89.2122 47.924 89.5295 47.852C89.8468 47.7773 90.2362 47.7347 90.6975 47.724V47.408C90.6975 47.0933 90.6295 46.856 90.4935 46.696C90.3575 46.5333 90.1588 46.452 89.8975 46.452C89.7215 46.452 89.5735 46.4747 89.4535 46.52C89.3362 46.5627 89.2335 46.612 89.1455 46.668C89.0602 46.7213 88.9855 46.7707 88.9215 46.816C88.8602 46.8587 88.7988 46.88 88.7375 46.88C88.6895 46.88 88.6482 46.868 88.6135 46.844C88.5788 46.8173 88.5495 46.7853 88.5255 46.748L88.3975 46.52ZM98.1181 50H97.6221C97.4941 50 97.3954 49.98 97.3261 49.94C97.2594 49.9 97.2074 49.8373 97.1701 49.752L96.3821 48.492C96.2514 48.284 96.0634 48.18 95.8181 48.18H95.4101V50.004H94.7181V48.18H94.3141C94.1941 48.18 94.0847 48.2067 93.9861 48.26C93.8901 48.3133 93.8114 48.3907 93.7501 48.492L92.9621 49.752C92.9221 49.8373 92.8674 49.9 92.7981 49.94C92.7314 49.98 92.6341 50 92.5061 50H92.0141L93.0781 48.324C93.1474 48.2067 93.2261 48.112 93.3141 48.04C93.4021 47.968 93.5101 47.9133 93.6381 47.876C93.5367 47.844 93.4501 47.7973 93.3781 47.736C93.3087 47.672 93.2434 47.5907 93.1821 47.492L92.1261 45.948H92.6861C92.7554 45.948 92.8181 45.9667 92.8741 46.004C92.9301 46.0387 92.9741 46.0867 93.0061 46.148L93.8661 47.428C93.9247 47.516 93.9954 47.584 94.0781 47.632C94.1607 47.6773 94.2581 47.7 94.3701 47.7H94.7181V45.948H95.4101V47.7H95.7501C95.9767 47.7 96.1474 47.6093 96.2621 47.428L97.1221 46.148C97.1541 46.0867 97.1981 46.0387 97.2541 46.004C97.3127 45.9667 97.3767 45.948 97.4461 45.948H98.0061L96.9501 47.492C96.8887 47.5907 96.8221 47.672 96.7501 47.736C96.6807 47.7973 96.5954 47.844 96.4941 47.876C96.6221 47.9133 96.7301 47.968 96.8181 48.04C96.9061 48.112 96.9847 48.2067 97.0541 48.324L98.1181 50ZM102.259 45.948V50H101.547V47.248C101.547 47.1947 101.549 47.1373 101.555 47.076C101.56 47.0147 101.567 46.9533 101.575 46.892C101.551 46.9453 101.527 46.9947 101.503 47.04C101.479 47.0853 101.453 47.1267 101.427 47.164L99.4708 49.824C99.4414 49.8667 99.4041 49.908 99.3588 49.948C99.3161 49.9853 99.2681 50.004 99.2148 50.004H98.7828V45.952H99.4988V48.704C99.4988 48.7547 99.4961 48.8107 99.4908 48.872C99.4854 48.9307 99.4788 48.9907 99.4708 49.052C99.4948 49.0013 99.5188 48.9547 99.5428 48.912C99.5668 48.8667 99.5908 48.8253 99.6148 48.788L101.571 46.128C101.6 46.0853 101.637 46.0453 101.683 46.008C101.728 45.968 101.777 45.948 101.831 45.948H102.259ZM107.891 46.148C107.929 46.0893 107.978 46.0413 108.039 46.004C108.101 45.9667 108.166 45.948 108.235 45.948H108.791L107.739 47.492C107.675 47.5907 107.609 47.672 107.539 47.736C107.47 47.7973 107.385 47.8453 107.283 47.88C107.411 47.9147 107.519 47.9693 107.607 48.044C107.695 48.116 107.774 48.2093 107.843 48.324L108.907 50H108.411C108.283 50 108.185 49.9787 108.115 49.936C108.046 49.8933 107.986 49.832 107.935 49.752L107.147 48.492C107.022 48.284 106.834 48.18 106.583 48.18H106.147V50.004H105.431V45.948H106.147V47.7H106.531C106.745 47.7 106.911 47.6093 107.031 47.428L107.891 46.148ZM111.128 49.5C111.394 49.5 111.605 49.4387 111.76 49.316C111.914 49.1907 111.992 49.02 111.992 48.804C111.992 48.708 111.977 48.6213 111.948 48.544C111.918 48.464 111.87 48.3947 111.804 48.336C111.737 48.2773 111.648 48.232 111.536 48.2C111.426 48.168 111.292 48.152 111.132 48.152H110.256V49.5H111.128ZM110.256 46.428V47.7H111.036C111.153 47.7 111.261 47.684 111.36 47.652C111.461 47.6173 111.548 47.5707 111.62 47.512C111.692 47.4507 111.748 47.3787 111.788 47.296C111.828 47.2107 111.848 47.1173 111.848 47.016C111.848 46.9413 111.834 46.8693 111.808 46.8C111.781 46.728 111.736 46.6653 111.672 46.612C111.608 46.556 111.524 46.512 111.42 46.48C111.316 46.4453 111.188 46.428 111.036 46.428H110.256ZM111.056 45.948C111.306 45.948 111.521 45.9733 111.7 46.024C111.878 46.0747 112.025 46.144 112.14 46.232C112.254 46.3173 112.338 46.4187 112.392 46.536C112.445 46.6533 112.472 46.7787 112.472 46.912C112.472 47 112.46 47.092 112.436 47.188C112.412 47.284 112.369 47.376 112.308 47.464C112.249 47.552 112.168 47.632 112.064 47.704C111.962 47.7733 111.834 47.828 111.68 47.868C111.989 47.9213 112.228 48.0293 112.396 48.192C112.564 48.352 112.648 48.564 112.648 48.828C112.648 49.0253 112.608 49.1973 112.528 49.344C112.45 49.488 112.342 49.6093 112.204 49.708C112.068 49.8067 111.908 49.88 111.724 49.928C111.54 49.976 111.342 50 111.132 50H109.572V45.948H111.056ZM115.737 48.176C115.409 48.1867 115.129 48.2133 114.897 48.256C114.667 48.296 114.479 48.3493 114.333 48.416C114.189 48.4827 114.083 48.5613 114.017 48.652C113.953 48.7427 113.921 48.844 113.921 48.956C113.921 49.0627 113.938 49.1547 113.973 49.232C114.007 49.3093 114.054 49.3733 114.113 49.424C114.174 49.472 114.245 49.508 114.325 49.532C114.407 49.5533 114.495 49.564 114.589 49.564C114.714 49.564 114.829 49.552 114.933 49.528C115.037 49.5013 115.134 49.464 115.225 49.416C115.318 49.368 115.406 49.3107 115.489 49.244C115.574 49.1773 115.657 49.1013 115.737 49.016V48.176ZM113.437 46.52C113.661 46.304 113.902 46.1427 114.161 46.036C114.419 45.9293 114.706 45.876 115.021 45.876C115.247 45.876 115.449 45.9133 115.625 45.988C115.801 46.0627 115.949 46.1667 116.069 46.3C116.189 46.4333 116.279 46.5947 116.341 46.784C116.402 46.9733 116.433 47.1813 116.433 47.408V50H116.117C116.047 50 115.994 49.9893 115.957 49.968C115.919 49.944 115.89 49.8987 115.869 49.832L115.789 49.448C115.682 49.5467 115.578 49.6347 115.477 49.712C115.375 49.7867 115.269 49.8507 115.157 49.904C115.045 49.9547 114.925 49.9933 114.797 50.02C114.671 50.0493 114.531 50.064 114.377 50.064C114.219 50.064 114.071 50.0427 113.933 50C113.794 49.9547 113.673 49.888 113.569 49.8C113.467 49.712 113.386 49.6013 113.325 49.468C113.266 49.332 113.237 49.172 113.237 48.988C113.237 48.828 113.281 48.6747 113.369 48.528C113.457 48.3787 113.599 48.2467 113.797 48.132C113.994 48.0173 114.251 47.924 114.569 47.852C114.886 47.7773 115.275 47.7347 115.737 47.724V47.408C115.737 47.0933 115.669 46.856 115.533 46.696C115.397 46.5333 115.198 46.452 114.937 46.452C114.761 46.452 114.613 46.4747 114.493 46.52C114.375 46.5627 114.273 46.612 114.185 46.668C114.099 46.7213 114.025 46.7707 113.961 46.816C113.899 46.8587 113.838 46.88 113.777 46.88C113.729 46.88 113.687 46.868 113.653 46.844C113.618 46.8173 113.589 46.7853 113.565 46.748L113.437 46.52ZM118.233 49.024C118.364 49.2 118.506 49.324 118.661 49.396C118.816 49.468 118.989 49.504 119.181 49.504C119.56 49.504 119.85 49.3693 120.053 49.1C120.256 48.8307 120.357 48.4467 120.357 47.948C120.357 47.684 120.333 47.4573 120.285 47.268C120.24 47.0787 120.173 46.924 120.085 46.804C119.997 46.6813 119.889 46.592 119.761 46.536C119.633 46.48 119.488 46.452 119.325 46.452C119.093 46.452 118.889 46.5053 118.713 46.612C118.54 46.7187 118.38 46.8693 118.233 47.064V49.024ZM118.197 46.576C118.368 46.3653 118.565 46.196 118.789 46.068C119.013 45.94 119.269 45.876 119.557 45.876C119.792 45.876 120.004 45.9213 120.193 46.012C120.382 46.1 120.544 46.232 120.677 46.408C120.81 46.5813 120.913 46.7973 120.985 47.056C121.057 47.3147 121.093 47.612 121.093 47.948C121.093 48.2467 121.053 48.5253 120.973 48.784C120.893 49.04 120.777 49.2627 120.625 49.452C120.476 49.6387 120.292 49.7867 120.073 49.896C119.857 50.0027 119.613 50.056 119.341 50.056C119.093 50.056 118.88 50.0147 118.701 49.932C118.525 49.8467 118.369 49.7293 118.233 49.58V51.372H117.517V45.948H117.945C118.046 45.948 118.109 45.9973 118.133 46.096L118.197 46.576ZM125.252 46.492H123.696V50H122.984V46.492H121.428V45.948H125.252V46.492ZM129.407 45.948V50H128.695V47.248C128.695 47.1947 128.698 47.1373 128.703 47.076C128.709 47.0147 128.715 46.9533 128.723 46.892C128.699 46.9453 128.675 46.9947 128.651 47.04C128.627 47.0853 128.602 47.1267 128.575 47.164L126.619 49.824C126.59 49.8667 126.553 49.908 126.507 49.948C126.465 49.9853 126.417 50.004 126.363 50.004H125.931V45.952H126.647V48.704C126.647 48.7547 126.645 48.8107 126.639 48.872C126.634 48.9307 126.627 48.9907 126.619 49.052C126.643 49.0013 126.667 48.9547 126.691 48.912C126.715 48.8667 126.739 48.8253 126.763 48.788L128.719 46.128C128.749 46.0853 128.786 46.0453 128.831 46.008C128.877 45.968 128.926 45.948 128.979 45.948H129.407ZM131.249 49.024C131.379 49.2 131.522 49.324 131.677 49.396C131.831 49.468 132.005 49.504 132.197 49.504C132.575 49.504 132.866 49.3693 133.069 49.1C133.271 48.8307 133.373 48.4467 133.373 47.948C133.373 47.684 133.349 47.4573 133.301 47.268C133.255 47.0787 133.189 46.924 133.101 46.804C133.013 46.6813 132.905 46.592 132.777 46.536C132.649 46.48 132.503 46.452 132.341 46.452C132.109 46.452 131.905 46.5053 131.729 46.612C131.555 46.7187 131.395 46.8693 131.249 47.064V49.024ZM131.213 46.576C131.383 46.3653 131.581 46.196 131.805 46.068C132.029 45.94 132.285 45.876 132.573 45.876C132.807 45.876 133.019 45.9213 133.209 46.012C133.398 46.1 133.559 46.232 133.693 46.408C133.826 46.5813 133.929 46.7973 134.001 47.056C134.073 47.3147 134.109 47.612 134.109 47.948C134.109 48.2467 134.069 48.5253 133.989 48.784C133.909 49.04 133.793 49.2627 133.641 49.452C133.491 49.6387 133.307 49.7867 133.089 49.896C132.873 50.0027 132.629 50.056 132.357 50.056C132.109 50.056 131.895 50.0147 131.717 49.932C131.541 49.8467 131.385 49.7293 131.249 49.58V51.372H130.533V45.948H130.961C131.062 45.948 131.125 45.9973 131.149 46.096L131.213 46.576ZM136.565 49.48C136.709 49.48 136.833 49.4627 136.937 49.428C137.044 49.3907 137.132 49.34 137.201 49.276C137.271 49.2093 137.323 49.132 137.357 49.044C137.392 48.956 137.409 48.86 137.409 48.756C137.409 48.66 137.395 48.5707 137.365 48.488C137.336 48.4027 137.287 48.328 137.217 48.264C137.151 48.2 137.063 48.1493 136.953 48.112C136.844 48.0747 136.711 48.056 136.553 48.056H135.689V49.48H136.565ZM136.553 47.536C136.833 47.536 137.068 47.5693 137.257 47.636C137.449 47.7027 137.603 47.792 137.717 47.904C137.835 48.016 137.919 48.1453 137.969 48.292C138.02 48.4387 138.045 48.5907 138.045 48.748C138.045 48.9293 138.013 49.0973 137.949 49.252C137.885 49.404 137.791 49.536 137.665 49.648C137.54 49.7573 137.385 49.844 137.201 49.908C137.017 49.9693 136.805 50 136.565 50H135.009V45.948H135.689V47.536H136.553ZM139.649 45.948V50H138.937V45.948H139.649ZM142.59 44.78C142.672 44.7027 142.763 44.6293 142.862 44.56C142.963 44.4907 143.072 44.4293 143.19 44.376C143.31 44.3227 143.438 44.2813 143.574 44.252C143.712 44.22 143.862 44.204 144.022 44.204C144.232 44.204 144.427 44.2347 144.606 44.296C144.787 44.3573 144.943 44.444 145.074 44.556C145.204 44.668 145.307 44.804 145.382 44.964C145.456 45.124 145.494 45.304 145.494 45.504C145.494 45.7067 145.463 45.8813 145.402 46.028C145.343 46.1747 145.267 46.304 145.174 46.416C145.083 46.5253 144.983 46.6213 144.874 46.704C144.767 46.784 144.666 46.86 144.57 46.932C144.474 47.004 144.391 47.076 144.322 47.148C144.255 47.22 144.216 47.3 144.206 47.388L144.134 48H143.646L143.598 47.336C143.587 47.216 143.61 47.112 143.666 47.024C143.722 46.9333 143.795 46.8493 143.886 46.772C143.976 46.692 144.076 46.6147 144.186 46.54C144.295 46.4627 144.396 46.3773 144.49 46.284C144.586 46.1907 144.666 46.0853 144.73 45.968C144.794 45.848 144.826 45.7053 144.826 45.54C144.826 45.4253 144.803 45.3213 144.758 45.228C144.712 45.1347 144.651 45.056 144.574 44.992C144.496 44.9253 144.404 44.8747 144.298 44.84C144.194 44.8053 144.082 44.788 143.962 44.788C143.799 44.788 143.659 44.808 143.542 44.848C143.427 44.888 143.33 44.932 143.25 44.98C143.17 45.028 143.104 45.072 143.054 45.112C143.006 45.152 142.966 45.172 142.934 45.172C142.867 45.172 142.815 45.1413 142.778 45.08L142.59 44.78ZM143.37 49.56C143.37 49.4907 143.382 49.4253 143.406 49.364C143.432 49.3027 143.467 49.2493 143.51 49.204C143.555 49.1587 143.608 49.1227 143.67 49.096C143.731 49.0693 143.796 49.056 143.866 49.056C143.935 49.056 144 49.0693 144.062 49.096C144.123 49.1227 144.176 49.1587 144.222 49.204C144.267 49.2493 144.303 49.3027 144.33 49.364C144.356 49.4253 144.37 49.4907 144.37 49.56C144.37 49.632 144.356 49.6987 144.33 49.76C144.303 49.8187 144.267 49.8707 144.222 49.916C144.176 49.9613 144.123 49.996 144.062 50.02C144 50.0467 143.935 50.06 143.866 50.06C143.796 50.06 143.731 50.0467 143.67 50.02C143.608 49.996 143.555 49.9613 143.51 49.916C143.467 49.8707 143.432 49.8187 143.406 49.76C143.382 49.6987 143.37 49.632 143.37 49.56Z" fill="#475658"/>
<path d="M15.525 19.225V22H3.525V19.225H7.92V6.58C7.92 6.08 7.935 5.565 7.965 5.035L4.845 7.645C4.665 7.785 4.485 7.875 4.305 7.915C4.135 7.945 3.97 7.945 3.81 7.915C3.66 7.885 3.525 7.835 3.405 7.765C3.285 7.685 3.195 7.6 3.135 7.51L1.965 5.905L8.58 0.279999H11.625V19.225H15.525Z" fill="#03073C"/>
</svg>
