<svg width="224" height="234" viewBox="0 0 224 234" fill="none" xmlns="http://www.w3.org/2000/svg">
<path d="M0.5 30C0.5 19.2305 9.23045 10.5 20 10.5H204C214.77 10.5 223.5 19.2304 223.5 30V214C223.5 224.77 214.77 233.5 204 233.5H20C9.23045 233.5 0.5 224.77 0.5 214V30Z" stroke="#E0E0E0"/>
<path d="M120.239 107.449C122.536 112.53 127.616 117.49 133.785 118.578C137.536 126.201 138.745 131.402 140.074 137.084C141.403 142.771 143.021 147.201 147.15 148.53C149.824 149.394 152.187 149.437 154.588 148.573C157.218 148.754 158.7 148.814 160.516 148.453C162.331 148.092 163.25 146.621 163.179 145.67C166.203 144.581 167.067 143.083 166.81 141.196C163.425 141.437 161.123 140.835 158.946 139.02C156.77 137.204 155.468 131.927 155.227 127.574C154.987 123.221 153.352 115.701 151.055 111.835C148.758 107.963 145.931 104.168 141.392 102.538C137.706 101.215 134.862 101.133 132.817 101.406C130.63 101.696 130.865 102.724 133.178 103.222C136.104 103.851 140.347 105.48 143.098 107.941C144.974 109.62 146.286 111.977 146.849 113.749C147.484 115.762 145.876 115.783 144.307 113.749C141.933 110.665 137.033 107.263 134.54 106.312C132.347 105.475 130.274 105.043 127.737 104.677C125.194 104.316 122.022 104.95 120.567 105.311C119.413 105.601 117.242 106.536 115.711 108.259C113.879 110.326 112.627 114.788 112.72 119.147C112.802 123.018 112.72 129.351 114.426 137.095C115.853 143.559 118.653 148.032 121.245 150.766C123.739 153.397 126.402 156.454 130.635 156.087C134.02 153.911 136.563 152.582 138.86 151.975C137.772 149.919 136.317 147.862 134.988 146.895C132.204 148.59 128.929 149.12 126.823 148.136C124.784 147.184 123.017 143.406 121.562 141.453C120.02 139.381 118.445 137.275 117.844 135.618C117.237 133.956 116.81 132.277 116.482 129.964C116.302 128.678 114.787 126.332 114.667 123.434C114.546 120.53 114.306 115.45 115.394 112.912C116.493 110.353 118.303 107.93 120.239 107.449Z" fill="#D44B4B"/>
<path d="M28.793 165.149L66.2313 165.269L80.9256 209.543L46.052 207.17L28.793 165.149Z" fill="#D44B4B"/>
<path d="M184.179 212.677C184.163 212.677 184.141 212.677 184.125 212.677C183.764 212.644 183.496 212.327 183.529 211.966C183.583 211.321 183.643 210.549 183.709 209.674C183.993 205.923 184.42 200.252 185.377 194.351C186.81 185.536 186.772 180.603 186.247 175.501C185.815 171.306 184.885 167.692 183.49 164.75C183.337 164.421 183.474 164.033 183.802 163.875C184.13 163.716 184.518 163.858 184.677 164.186C186.137 167.265 187.105 171.028 187.554 175.364C188.188 181.516 187.953 186.717 186.673 194.559C185.722 200.405 185.295 206.038 185.016 209.767C184.951 210.648 184.89 211.424 184.836 212.075C184.803 212.42 184.518 212.677 184.179 212.677Z" fill="#475658"/>
<path d="M166.226 163.962C166.089 163.962 165.947 163.918 165.826 163.825C165.537 163.607 165.487 163.191 165.706 162.907C167.768 160.227 173.324 158.329 176.939 159.073C177.294 159.144 177.524 159.494 177.447 159.85C177.376 160.205 177.032 160.435 176.671 160.358C173.586 159.724 168.484 161.446 166.745 163.705C166.614 163.875 166.423 163.962 166.226 163.962Z" fill="#475658"/>
<path d="M163.448 167.199C163.136 167.019 162.731 167.123 162.551 167.44C161.063 170.01 159.067 176.031 157.613 180.428C156.967 182.38 156.409 184.07 156.109 184.787C155.66 185.858 155.42 187.16 155.179 188.412C154.906 189.856 154.627 191.354 154.08 191.989C153.068 193.17 153.675 194.258 154.074 194.98C154.293 195.374 154.501 195.751 154.501 196.101C154.501 196.577 154.129 196.971 153.757 197.151C153.626 197.211 153.172 197.397 152.849 197.14C151.756 196.265 150.126 196.522 147.873 196.883L147.102 197.004C144.455 197.414 134.743 198.343 131.555 197.972C128.279 197.589 127.207 197.397 126.54 197.217C125.73 196.998 124.522 197.299 123.931 197.993C121.842 197.676 119.343 197.299 118.922 197.261C118.577 197.228 118.014 197.277 117.686 197.879C117.314 197.857 116.909 197.829 116.483 197.807C114.613 197.693 112.288 197.556 110.637 197.392C108.789 197.206 105.704 196.282 103.451 195.609C102.642 195.368 101.936 195.155 101.422 195.018C101.05 194.92 100.706 194.833 100.372 194.745C101.149 194.526 102.018 194.291 102.877 194.056C105.568 193.318 108.105 192.618 108.799 192.35C110.839 191.562 111.928 190.594 112.031 189.468C112.108 188.653 113.125 186.881 114.323 186.192C115.81 185.339 116.226 184.716 116.472 183.862C116.538 183.644 116.576 183.398 116.625 183.119C116.734 182.457 116.877 181.637 117.374 180.827C117.91 179.952 121.629 172.657 124.341 167.325C125.654 164.75 126.687 162.721 126.999 162.125C127.781 160.637 128.804 158.887 129.799 158.559C130.144 158.444 130.33 158.072 130.215 157.728C130.1 157.383 129.728 157.197 129.383 157.312C127.962 157.788 126.841 159.609 125.84 161.512C125.523 162.119 124.484 164.153 123.171 166.729C120.617 171.738 116.762 179.307 116.253 180.138C115.619 181.166 115.455 182.167 115.329 182.9C115.291 183.141 115.252 183.354 115.209 183.501C115.083 183.934 114.979 184.305 113.672 185.055C112.13 185.935 110.845 188.051 110.724 189.347C110.675 189.911 109.8 190.556 108.329 191.125C107.695 191.371 104.95 192.126 102.527 192.787C100.301 193.4 98.1958 193.979 97.4302 194.236C97.031 194.209 96.6263 194.204 96.1833 194.22C95.7404 194.236 95.2044 194.28 94.6302 194.335C94.6193 194.329 94.6138 194.324 94.6029 194.318C94.4498 194.269 94.2693 194.253 92.0654 194.127C90.6983 194.051 89.1452 193.963 88.5819 193.897C87.9858 193.826 87.5265 193.919 87.1436 194.089C87.0343 193.947 86.8757 193.848 86.6788 193.832C84.7156 193.673 83.9499 194.57 83.6492 195.379L83.4851 195.39C82.0031 195.483 81.1008 195.543 80.286 196.528L68.7799 161.928C68.6924 161.66 68.4409 161.479 68.162 161.479L30.0893 161.157H30.0838C29.7229 161.157 29.433 161.446 29.4276 161.807C29.4221 162.168 29.7174 162.464 30.0783 162.469L67.6808 162.786L81.3578 203.905C81.3633 203.949 81.3852 203.982 81.3961 204.02L82.3804 206.984C82.4679 207.252 82.7195 207.432 83.0039 207.432H105.338C106.683 207.547 108.078 207.564 109.292 207.564C109.543 207.564 109.789 207.564 110.024 207.564H117.292C117.424 207.564 117.538 207.514 117.637 207.449C117.675 207.465 117.713 207.476 117.752 207.487L124.998 208.843C125.036 208.849 125.08 208.854 125.118 208.854C125.134 208.854 125.151 208.849 125.167 208.843C125.123 208.947 125.085 209.051 125.041 209.144C125.014 209.199 125.009 209.259 124.998 209.319H82.1781L46.4788 206.535L28.9682 164.11C28.8315 163.776 28.4432 163.617 28.1096 163.754C27.776 163.891 27.6174 164.274 27.7542 164.613L45.4179 207.41C45.5109 207.64 45.7296 207.793 45.9757 207.815L82.1289 210.631H125.703C126.064 210.631 126.359 210.336 126.359 209.975C126.359 209.849 126.316 209.746 126.255 209.647C127.415 207.126 127.951 201.127 127.289 198.721C128.087 198.863 129.296 199.027 131.385 199.273C131.954 199.339 132.692 199.366 133.551 199.366C137.898 199.366 145.177 198.622 147.282 198.3L148.059 198.179C149.984 197.873 151.373 197.654 152.013 198.163C152.625 198.655 153.506 198.715 154.304 198.332C155.212 197.895 155.792 197.02 155.792 196.101C155.792 195.407 155.474 194.838 155.195 194.34C154.747 193.536 154.676 193.279 155.053 192.842C155.824 191.94 156.125 190.343 156.448 188.653C156.672 187.466 156.902 186.236 157.295 185.29C157.613 184.524 158.154 182.9 158.832 180.838C160.27 176.496 162.239 170.546 163.661 168.091C163.869 167.785 163.765 167.38 163.448 167.199ZM84.8906 195.866C84.989 195.587 85.1913 195.286 85.7491 195.172C85.4867 195.44 85.1093 195.91 84.6992 196.44C84.7648 196.232 84.8304 196.036 84.8906 195.866ZM82.2055 198.633L82.0851 198.841C81.9102 199.136 81.6805 199.514 81.4234 199.88L80.7946 197.993C80.893 197.939 80.986 197.862 81.0461 197.758C81.5547 196.922 81.8773 196.818 83.2445 196.725C83.1406 197.091 83.0312 197.474 82.9219 197.857C82.8781 198.015 82.8343 198.174 82.7906 198.322C82.5609 198.311 82.3313 198.414 82.2055 198.633ZM83.4961 206.125L83.4195 205.901C83.4797 205.961 83.5453 206.021 83.6164 206.082C83.6382 206.098 83.6656 206.114 83.6875 206.131H83.4961V206.125ZM83.9007 202.144C83.7039 202.658 83.5343 203.282 83.3867 203.828C83.2883 204.195 83.1953 204.545 83.1187 204.736C83.1023 204.78 83.0914 204.829 83.0804 204.878L82.7031 203.735C82.7414 203.544 82.7797 203.331 82.8234 203.085C82.9766 202.221 83.239 200.766 83.5125 200.334C84.021 199.536 86.2194 196.495 86.7608 196.003L86.9249 195.855C87.4663 195.363 87.7343 195.111 88.4452 195.193C88.5928 195.21 88.8006 195.232 89.0467 195.248C88.735 195.456 88.5108 195.729 88.2866 196.014C88.1061 196.238 87.8983 196.495 87.603 196.796C86.4437 197.955 85.1695 199.585 85.0273 199.771C84.5734 200.356 84.3054 201.067 84.021 201.821L83.9007 202.144ZM85.957 206.125C86.0609 206.043 86.1265 205.928 86.1648 205.814C86.2577 205.857 86.3562 205.89 86.4546 205.89C86.5858 205.89 86.7116 205.846 86.821 205.764C86.8484 205.896 86.8921 206.016 86.9577 206.125H85.957ZM91.6061 206.125C91.9561 205.917 92.2951 205.66 92.585 205.343C92.9349 205.228 93.3123 205.119 93.706 205.004C94.7724 204.698 95.8716 204.381 96.7028 203.828C96.8997 203.96 97.0966 204.091 97.2989 204.222C98.3106 204.895 99.3387 205.573 100.422 206.125H91.6061ZM117.478 206.246C117.374 206.174 117.254 206.125 117.117 206.125H105.447C104.687 206.06 103.949 205.967 103.287 205.819C101.455 205.414 99.7106 204.255 98.0208 203.134C97.6872 202.91 97.3591 202.691 97.031 202.483C96.7849 202.325 96.4622 202.346 96.2435 202.543C95.6036 203.101 94.4552 203.429 93.3451 203.752C92.8912 203.883 92.4264 204.014 91.9943 204.167C91.885 204.206 91.7811 204.277 91.71 204.364C90.5944 205.693 88.5928 205.633 88.0952 205.453C88.1116 205.272 88.3085 204.818 88.7514 204.452L92.0436 201.707C92.6561 201.193 92.842 201.039 93.4216 200.892C94.1872 200.7 96.2271 200.192 97.7309 200.006C97.8676 199.989 97.977 199.924 98.07 199.842C98.677 199.825 99.2293 199.82 99.6559 199.82C100.017 199.82 100.312 199.525 100.312 199.164C100.312 198.803 100.017 198.507 99.6559 198.507C98.5895 198.507 96.7684 198.568 95.1661 198.617C93.8263 198.661 92.5631 198.699 91.956 198.699C91.7756 198.699 91.6061 198.775 91.4803 198.907C90.3592 200.093 88.7022 200.979 88.0624 201.193C87.8546 201.264 87.696 201.433 87.6358 201.641C87.2093 203.2 86.7171 204.157 86.0281 204.742C85.9296 204.824 85.8749 204.933 85.8421 205.048C85.6288 204.939 85.3609 204.95 85.1585 205.103C85.0273 205.201 84.8632 205.196 84.7484 205.179C84.6062 205.152 84.4859 205.092 84.4148 205.042C84.4914 204.807 84.5679 204.518 84.6609 204.184C84.8031 203.664 84.9562 203.079 85.1312 202.631L85.257 202.303C85.514 201.619 85.7382 201.023 86.0718 200.596C86.2085 200.421 87.4389 198.847 88.5436 197.747C88.8936 197.397 89.1288 197.097 89.3256 196.856C89.692 196.397 89.7795 196.298 90.1131 196.249L90.3155 196.222C91.3709 196.068 94.592 195.604 96.2544 195.543C97.9552 195.483 99.1473 195.773 101.111 196.298C101.614 196.429 102.303 196.637 103.101 196.878C105.403 197.567 108.553 198.513 110.533 198.71C112.206 198.879 114.547 199.016 116.428 199.131C117.166 199.175 117.839 199.213 118.37 199.251C118.375 200.903 118.189 204.758 117.478 206.246ZM88.642 202.817C88.7022 202.636 88.7569 202.461 88.8061 202.292C89.1506 202.144 89.5827 201.925 90.042 201.652L88.642 202.817ZM125.566 207.717C125.479 207.64 125.38 207.58 125.266 207.558L118.851 206.355C119.688 204.009 119.698 199.585 119.66 198.682C121.339 198.923 124.877 199.464 126.179 199.672C126.469 201.575 126.223 205.256 125.566 207.717Z" fill="#475658"/>
<path d="M128.444 196.763C128.149 196.763 127.881 196.566 127.809 196.265C127.673 195.713 127.52 195.073 127.306 194.176C127.066 193.176 126.749 191.847 126.289 189.955C126.021 188.866 125.671 187.762 125.332 186.695C124.561 184.278 123.757 181.773 123.976 179.356C124.348 175.271 124.999 169.524 125.606 166.784C125.682 166.428 126.032 166.21 126.388 166.286C126.743 166.363 126.962 166.713 126.885 167.068C126.289 169.748 125.649 175.424 125.283 179.471C125.086 181.62 125.813 183.89 126.579 186.291C126.929 187.379 127.284 188.505 127.563 189.643C128.023 191.54 128.34 192.869 128.581 193.87C128.794 194.761 128.947 195.396 129.084 195.948C129.171 196.298 128.958 196.654 128.608 196.747C128.548 196.758 128.493 196.763 128.444 196.763Z" fill="#475658"/>
<path d="M167.872 212.485C167.571 212.485 167.303 212.277 167.232 211.977C167.15 211.621 167.374 211.271 167.724 211.189C169.518 210.779 171.076 209.478 172.35 207.323C173.411 205.524 177.956 197.211 180.46 191.01C182.752 185.328 184.89 177.207 184.01 171.46C183.878 170.59 183.681 169.737 183.424 168.911C183.315 168.567 183.512 168.195 183.856 168.091C184.201 167.981 184.573 168.178 184.677 168.523C184.95 169.409 185.163 170.328 185.306 171.263C186.224 177.273 184.031 185.656 181.674 191.502C179.307 197.375 174.91 205.562 173.477 207.99C172.011 210.473 170.174 211.977 168.008 212.469C167.97 212.48 167.921 212.485 167.872 212.485Z" fill="#475658"/>
<path d="M162.753 212.704C160.631 212.704 157.831 212.496 155.108 212.294C152.412 212.092 149.869 211.906 147.982 211.906C143.607 211.906 128.552 210.828 127.546 210.741C127.185 210.708 126.917 210.391 126.95 210.03C126.983 209.669 127.311 209.412 127.661 209.434C128.634 209.521 143.75 210.593 147.982 210.593C149.918 210.593 152.489 210.785 155.206 210.987C158.428 211.228 161.758 211.474 163.863 211.37C164.197 211.353 164.531 211.632 164.552 211.993C164.569 212.354 164.29 212.66 163.929 212.682C163.568 212.693 163.174 212.704 162.753 212.704Z" fill="#475658"/>
<path d="M42.2026 205.677C42.1916 205.677 42.1752 205.677 42.1643 205.677L32.6543 205.108C32.2934 205.086 32.0145 204.775 32.0364 204.414C32.0582 204.053 32.3699 203.779 32.7309 203.796L42.2409 204.364C42.6018 204.386 42.8807 204.698 42.8588 205.059C42.8369 205.409 42.5471 205.677 42.2026 205.677Z" fill="#475658"/>
<path d="M198.058 215.006C198.048 215.006 198.031 215.006 198.02 215.006L170.83 213.377C170.469 213.355 170.19 213.043 170.212 212.682C170.234 212.321 170.551 212.048 170.907 212.064L198.097 213.694C198.458 213.716 198.737 214.028 198.715 214.388C198.687 214.738 198.403 215.006 198.058 215.006Z" fill="#475658"/>
<path d="M166.242 141.716C163.502 141.716 160.724 139.971 159.352 138.604C157.613 136.865 156.503 133.272 156.229 128.503C156.081 125.955 155.36 117.161 152.177 110.944C149.579 105.869 145.407 102.505 142.432 101.423C142.093 101.297 141.918 100.92 142.038 100.581C142.164 100.241 142.536 100.066 142.88 100.187C145.866 101.27 150.394 104.584 153.347 110.347C156.65 116.79 157.388 125.818 157.542 128.427C157.793 132.813 158.794 136.187 160.281 137.674C161.616 139.009 164.705 140.895 167.298 140.283C167.653 140.201 168.003 140.42 168.091 140.77C168.173 141.125 167.959 141.475 167.604 141.563C167.155 141.666 166.702 141.716 166.242 141.716Z" fill="#475658"/>
<path d="M143.694 132.31C143.394 132.31 143.126 132.102 143.055 131.801C142.858 130.937 142.661 130.046 142.459 129.132L142.284 128.339C140.823 121.777 137.761 113.771 133.534 110.998C133.233 110.801 133.145 110.391 133.348 110.09C133.545 109.79 133.955 109.702 134.256 109.904C139.987 113.667 142.83 124.752 143.563 128.055L143.738 128.848C143.94 129.761 144.137 130.653 144.334 131.511C144.416 131.867 144.192 132.217 143.842 132.299C143.793 132.304 143.744 132.31 143.694 132.31Z" fill="#475658"/>
<path d="M139.178 98.9563C136.559 98.5188 132.495 98.2618 127.989 99.5031C124.418 100.488 118.501 103.462 117.96 105.267C117.933 105.366 117.932 105.464 117.943 105.557C117.79 105.497 117.621 105.491 117.457 105.551C116.39 105.978 114.859 107.356 114.006 109.161C113.284 110.687 112.19 112.994 111.999 116.226C111.819 119.267 111.868 121.782 111.994 124.626C112.245 130.396 112.863 135.235 113.771 138.626C115.876 146.49 121.618 153.916 127.421 156.273C127.503 156.306 127.585 156.322 127.667 156.322C127.924 156.322 128.17 156.169 128.274 155.912C128.41 155.579 128.246 155.196 127.913 155.059C122.461 152.844 117.047 145.79 115.034 138.287C114.148 134.989 113.552 130.248 113.301 124.571C113.18 121.766 113.131 119.289 113.306 116.303C113.481 113.322 114.465 111.239 115.187 109.719C115.931 108.144 117.243 107.044 117.938 106.766C118.233 106.645 118.381 106.339 118.326 106.038C118.348 106.049 118.365 106.066 118.392 106.071C118.457 106.087 118.518 106.098 118.578 106.098C118.862 106.098 119.119 105.912 119.207 105.628C119.475 104.731 124.271 101.871 128.328 100.755C132.599 99.5742 136.466 99.8203 138.948 100.236C139.304 100.296 139.643 100.055 139.703 99.6946C139.774 99.3555 139.534 99.0164 139.178 98.9563Z" fill="#475658"/>
<path d="M121.897 122.362C121.76 122.362 121.618 122.318 121.498 122.225C121.208 122.007 121.153 121.596 121.372 121.307C122.969 119.207 126.124 117.84 128.706 118.129C129.066 118.168 129.323 118.496 129.285 118.857C129.247 119.218 128.913 119.475 128.558 119.436C126.442 119.201 123.735 120.372 122.417 122.105C122.291 122.275 122.094 122.362 121.897 122.362Z" fill="#475658"/>
<path d="M121.547 137.86C121.519 137.86 121.492 137.86 121.465 137.855C121.104 137.811 120.852 137.483 120.896 137.122C121.054 135.87 120.907 133.742 120.404 132.485C120.267 132.146 120.431 131.768 120.77 131.631C121.104 131.495 121.486 131.659 121.623 131.998C122.236 133.524 122.378 135.864 122.197 137.286C122.159 137.62 121.875 137.86 121.547 137.86Z" fill="#475658"/>
<path d="M125.633 128.482C126.343 128.482 126.918 127.906 126.918 127.196C126.918 126.487 126.343 125.911 125.633 125.911C124.923 125.911 124.348 126.487 124.348 127.196C124.348 127.906 124.923 128.482 125.633 128.482Z" fill="#475658"/>
<path d="M138.02 143.635C137.757 143.383 137.341 143.389 137.09 143.651C134.793 146.036 133.158 146.938 131.26 147.627C129.521 148.262 127.58 148.043 126.317 147.075C125.278 146.276 124.485 144.876 123.845 143.75L123.659 143.422C123.593 143.301 123.506 143.165 123.424 143.034C125.179 142.437 127.979 140.95 129.029 139.37C129.231 139.069 129.149 138.659 128.849 138.462C128.548 138.259 128.138 138.341 127.941 138.642C127.039 139.993 124.167 141.464 122.696 141.891C121.849 140.616 120.788 139.123 120.099 138.172C118.901 136.509 118.278 135.41 117.988 133.627C117.917 133.19 117.84 132.758 117.758 132.337C117.824 132.348 117.895 132.359 117.966 132.359C118.6 132.359 119.12 131.845 119.12 131.205C119.12 130.57 118.606 130.051 117.966 130.051C117.725 130.051 117.501 130.127 117.315 130.253C117.173 129.641 117.036 129.143 116.938 128.842C116.774 128.356 116.561 127.781 116.342 127.191C116.222 126.874 116.101 126.551 115.986 126.234C116.369 126.026 116.632 126.01 117.211 126.157C117.561 126.245 117.917 126.031 118.004 125.681C118.092 125.332 117.879 124.976 117.529 124.883C116.818 124.708 116.249 124.664 115.56 124.982C115.243 123.888 115.117 121.214 115.161 119.212C115.204 117.216 115.658 114.186 116.44 112.267C117.233 110.331 118.447 108.844 119.459 108.576C119.809 108.483 120.017 108.122 119.924 107.772C119.831 107.422 119.47 107.214 119.12 107.307C117.408 107.766 115.986 109.91 115.226 111.769C114.34 113.935 113.892 117.129 113.848 119.185C113.804 121.307 113.93 124.161 114.318 125.419C114.526 126.092 114.822 126.885 115.106 127.65C115.319 128.224 115.527 128.782 115.686 129.258C115.921 129.958 116.369 131.91 116.681 133.841C117.042 136.066 117.917 137.412 119.021 138.943C120.011 140.31 121.778 142.798 122.51 144.078L122.696 144.401C123.391 145.631 124.26 147.162 125.513 148.119C126.524 148.896 127.859 149.301 129.242 149.301C130.063 149.301 130.905 149.158 131.703 148.869C133.716 148.136 135.564 147.124 138.03 144.57C138.287 144.302 138.277 143.887 138.02 143.635Z" fill="#475658"/>
<path d="M182.95 160.938C182.31 159.226 180.429 157.175 178.887 155.819C177.4 154.518 167.578 147.638 164.362 145.68C165.079 145.347 165.795 144.882 166.506 144.237C166.774 143.991 166.796 143.58 166.55 143.307C166.304 143.039 165.888 143.017 165.62 143.263C161.737 146.785 157.548 144.209 154.169 142.126C150.822 140.07 147.694 133.923 146.206 129.083C146.103 128.738 145.736 128.542 145.386 128.651C145.042 128.755 144.845 129.127 144.954 129.471C146.567 134.71 149.827 140.999 153.496 143.258C155.738 144.636 158.505 146.342 161.409 146.342C161.863 146.342 162.322 146.298 162.776 146.205C162.837 146.293 162.913 146.369 163.012 146.424C164.838 147.337 176.497 155.486 178.012 156.815C179.368 158.001 181.157 159.921 181.709 161.403C181.807 161.665 182.059 161.829 182.321 161.829C182.398 161.829 182.474 161.818 182.551 161.786C182.906 161.654 183.076 161.277 182.95 160.938Z" fill="#475658"/>
<path d="M162.087 146.976C161.753 147.119 161.594 147.501 161.737 147.835C162.644 149.984 161.54 156.694 160.561 159.199L155.043 160.796C154.764 160.878 154.573 161.129 154.567 161.419C154.562 161.709 154.753 161.966 155.027 162.053L158.762 163.229C156.104 167.653 152.965 172.023 150.422 175.572C149.345 177.076 148.41 178.377 147.693 179.433C145.096 183.261 142 191.092 140.743 196.008C140.65 196.358 140.863 196.719 141.213 196.807C141.267 196.823 141.322 196.829 141.377 196.829C141.672 196.829 141.935 196.632 142.011 196.336C143.22 191.628 146.293 183.835 148.776 180.177C149.481 179.137 150.411 177.841 151.483 176.343C154.179 172.581 157.537 167.905 160.315 163.191C160.419 163.016 160.435 162.808 160.364 162.622C160.293 162.436 160.14 162.294 159.948 162.234L157.498 161.463L161.228 160.385C161.414 160.331 161.567 160.2 161.644 160.019C162.737 157.558 164.055 149.973 162.945 147.337C162.808 146.993 162.426 146.84 162.087 146.976Z" fill="#475658"/>
<path d="M161.764 148.196C161.649 147.851 161.271 147.671 160.932 147.786C156.016 149.47 151.04 145.768 148.869 143.318C147.157 141.382 146.38 139.353 145.462 136.061C145.363 135.711 145.002 135.509 144.652 135.607C144.302 135.706 144.1 136.066 144.198 136.416C145.166 139.905 146.003 142.06 147.884 144.193C149.126 145.598 151.215 147.365 153.725 148.469C150.958 149.208 147.294 148.934 144.696 146.594C142.394 144.526 141.486 140.819 140.228 135.689C139.747 133.726 139.2 131.495 138.506 129.078C137.401 125.239 136.149 122.072 134.574 119.125C135.361 119.218 136.165 119.267 136.996 119.267C137.357 119.267 137.652 118.971 137.652 118.611C137.652 118.25 137.357 117.954 136.996 117.954C134.601 117.954 132.435 117.544 130.379 116.707C126.912 115.291 124.046 112.655 121.854 108.882C121.673 108.57 121.268 108.461 120.957 108.641C120.645 108.822 120.536 109.226 120.716 109.538C123.057 113.568 126.141 116.385 129.876 117.916C131.013 118.381 132.178 118.72 133.387 118.944C133.256 119.141 133.228 119.398 133.349 119.617C134.913 122.515 136.149 125.638 137.242 129.438C137.931 131.828 138.473 134.043 138.954 135.995C140.266 141.355 141.218 145.226 143.821 147.562C145.872 149.404 148.486 150.132 150.936 150.132C152.571 150.132 154.14 149.809 155.415 149.273C155.497 149.24 155.568 149.191 155.622 149.131C155.978 149.229 156.339 149.312 156.705 149.372C156.481 149.437 156.3 149.618 156.246 149.858C155.847 151.849 155.24 153.954 154.545 155.781C153.708 157.974 151.833 161.632 149.787 165.466C149.7 165.482 149.618 165.515 149.541 165.57C142.268 170.683 137.86 172.663 135.662 171.788C134.672 171.394 134.038 170.377 133.677 168.599C133.644 168.452 133.562 168.331 133.452 168.239C134.77 163.459 136.761 157.635 138.883 154.556C138.888 154.594 138.899 154.638 138.905 154.676C138.948 154.911 138.992 155.147 139.041 155.398C139.102 155.71 139.381 155.923 139.687 155.923C139.731 155.923 139.774 155.918 139.818 155.912C140.173 155.841 140.403 155.497 140.332 155.141C140.283 154.9 140.245 154.671 140.201 154.441C140.009 153.397 139.829 152.412 139.206 151.236C138.5 149.913 137.1 147.551 135.624 146.566C135.323 146.364 134.913 146.446 134.716 146.747C134.513 147.047 134.595 147.458 134.896 147.655C135.744 148.218 136.805 149.601 137.838 151.472C137.631 151.565 137.395 151.668 137.122 151.789C132.353 153.916 130.718 154.829 130.401 155.551C130.253 155.885 130.396 156.29 130.724 156.437C130.817 156.475 130.91 156.497 131.003 156.497C131.249 156.497 131.473 156.361 131.582 156.12C131.828 155.775 133.234 155.048 134.672 154.359C133.103 155.786 131.325 158.182 130.221 159.893C130.106 160.068 130.084 160.287 130.16 160.484C130.237 160.681 130.401 160.828 130.598 160.883L131.719 161.189L129.46 162.245C129.28 162.327 129.149 162.491 129.099 162.682C127.475 169.299 127.01 176.392 127.273 180.477C127.579 185.279 128.241 189.763 129.045 192.465C129.132 192.749 129.389 192.935 129.674 192.935C129.734 192.935 129.799 192.924 129.86 192.908C130.204 192.804 130.406 192.437 130.303 192.093C129.526 189.479 128.881 185.109 128.58 180.401C128.328 176.474 128.771 169.704 130.303 163.306L133.901 161.627C134.152 161.512 134.3 161.25 134.278 160.976C134.256 160.703 134.065 160.473 133.797 160.396L131.828 159.861C133.02 158.105 134.606 156.109 135.859 155.065C136.138 154.835 136.176 154.419 135.941 154.14C135.848 154.025 135.722 153.965 135.591 153.933C136.433 153.544 137.204 153.2 137.663 152.992C137.948 152.866 138.199 152.751 138.418 152.653C138.495 152.861 138.56 153.063 138.62 153.265C138.396 153.238 138.161 153.32 138.013 153.522C134.36 158.526 131.347 170.585 130.718 174.177C129.996 178.295 130.461 184.934 130.707 188.505C130.789 189.692 130.86 190.693 130.926 191.562C131.085 193.75 131.178 195.073 131.227 196.309C131.238 196.665 131.533 196.943 131.883 196.943C131.894 196.943 131.899 196.943 131.905 196.943C132.266 196.932 132.55 196.626 132.539 196.265C132.49 195.002 132.397 193.673 132.238 191.469C132.178 190.6 132.102 189.599 132.02 188.412C131.774 184.901 131.32 178.361 132.009 174.402C132.178 173.445 132.474 172.072 132.873 170.47C133.387 171.755 134.147 172.592 135.186 173.002C135.667 173.193 136.209 173.292 136.816 173.292C139.348 173.292 143.028 171.574 148.491 167.889C148.065 168.681 147.633 169.474 147.212 170.251C145.653 173.122 144.187 175.829 143.225 177.748C140.496 183.201 138.615 191.043 138.019 196.014C137.975 196.375 138.232 196.697 138.593 196.741C138.62 196.747 138.648 196.747 138.67 196.747C138.998 196.747 139.282 196.5 139.32 196.167C139.906 191.3 141.743 183.644 144.401 178.334C145.347 176.436 146.812 173.734 148.365 170.874C151.275 165.51 154.567 159.434 155.781 156.24C156.497 154.348 157.126 152.172 157.542 150.11C157.597 149.837 157.471 149.574 157.252 149.432C157.624 149.476 158.001 149.503 158.384 149.503C159.363 149.503 160.364 149.355 161.364 149.011C161.698 148.912 161.879 148.54 161.764 148.196Z" fill="#475658"/>
<rect x="52.5" y="34.5" width="149" height="30" rx="15" fill="white" stroke="#E0E0E0"/>
<path d="M70.4 45.804C70.616 45.612 70.8667 45.4653 71.152 45.364C71.4373 45.2627 71.7613 45.212 72.124 45.212C72.42 45.212 72.6853 45.248 72.92 45.32C73.1573 45.392 73.3587 45.4933 73.524 45.624C73.6893 45.7547 73.816 45.9093 73.904 46.088C73.9947 46.2667 74.04 46.4627 74.04 46.676C74.04 46.964 73.968 47.2173 73.824 47.436C73.6827 47.6547 73.4827 47.824 73.224 47.944C73.3707 48.0053 73.504 48.0813 73.624 48.172C73.744 48.26 73.8467 48.36 73.932 48.472C74.02 48.584 74.0867 48.7067 74.132 48.84C74.18 48.9733 74.204 49.1133 74.204 49.26C74.204 49.5107 74.1573 49.7453 74.064 49.964C73.9707 50.1827 73.8347 50.3733 73.656 50.536C73.48 50.696 73.2627 50.8227 73.004 50.916C72.7453 51.0093 72.4507 51.056 72.12 51.056C71.7093 51.056 71.34 50.9893 71.012 50.856C70.684 50.72 70.4027 50.5373 70.168 50.308L70.392 49.94C70.4133 49.9107 70.44 49.8867 70.472 49.868C70.504 49.8467 70.5387 49.836 70.576 49.836C70.632 49.836 70.6987 49.8667 70.776 49.928C70.8533 49.9867 70.952 50.052 71.072 50.124C71.192 50.196 71.3373 50.2627 71.508 50.324C71.6813 50.3827 71.892 50.412 72.14 50.412C72.3507 50.412 72.5387 50.3867 72.704 50.336C72.872 50.2853 73.012 50.212 73.124 50.116C73.2387 50.02 73.3253 49.9027 73.384 49.764C73.4453 49.6253 73.476 49.4693 73.476 49.296C73.476 49.1467 73.4467 49.0093 73.388 48.884C73.332 48.7587 73.2493 48.652 73.14 48.564C73.0307 48.4733 72.8973 48.404 72.74 48.356C72.5827 48.3053 72.4053 48.28 72.208 48.28H71.424V47.644H72.176C72.3387 47.644 72.4893 47.624 72.628 47.584C72.7693 47.544 72.8893 47.4853 72.988 47.408C73.0893 47.3307 73.168 47.236 73.224 47.124C73.2827 47.012 73.312 46.884 73.312 46.74C73.312 46.6093 73.2853 46.4893 73.232 46.38C73.1787 46.2707 73.1013 46.1773 73 46.1C72.8987 46.02 72.7747 45.9587 72.628 45.916C72.4813 45.8733 72.3147 45.852 72.128 45.852C71.912 45.852 71.728 45.8747 71.576 45.92C71.424 45.9653 71.296 46.016 71.192 46.072C71.088 46.1253 71.0027 46.1747 70.936 46.22C70.872 46.2653 70.816 46.288 70.768 46.288C70.7253 46.288 70.6907 46.2787 70.664 46.26C70.6373 46.2413 70.612 46.2107 70.588 46.168L70.4 45.804ZM77.2991 49.176C76.9711 49.1867 76.6911 49.2133 76.4591 49.256C76.2297 49.296 76.0417 49.3493 75.8951 49.416C75.7511 49.4827 75.6457 49.5613 75.5791 49.652C75.5151 49.7427 75.4831 49.844 75.4831 49.956C75.4831 50.0627 75.5004 50.1547 75.5351 50.232C75.5697 50.3093 75.6164 50.3733 75.6751 50.424C75.7364 50.472 75.8071 50.508 75.8871 50.532C75.9697 50.5533 76.0577 50.564 76.1511 50.564C76.2764 50.564 76.3911 50.552 76.4951 50.528C76.5991 50.5013 76.6964 50.464 76.7871 50.416C76.8804 50.368 76.9684 50.3107 77.0511 50.244C77.1364 50.1773 77.2191 50.1013 77.2991 50.016V49.176ZM74.9991 47.52C75.2231 47.304 75.4644 47.1427 75.7231 47.036C75.9817 46.9293 76.2684 46.876 76.5831 46.876C76.8097 46.876 77.0111 46.9133 77.1871 46.988C77.3631 47.0627 77.5111 47.1667 77.6311 47.3C77.7511 47.4333 77.8417 47.5947 77.9031 47.784C77.9644 47.9733 77.9951 48.1813 77.9951 48.408V51H77.6791C77.6097 51 77.5564 50.9893 77.5191 50.968C77.4817 50.944 77.4524 50.8987 77.4311 50.832L77.3511 50.448C77.2444 50.5467 77.1404 50.6347 77.0391 50.712C76.9377 50.7867 76.8311 50.8507 76.7191 50.904C76.6071 50.9547 76.4871 50.9933 76.3591 51.02C76.2337 51.0493 76.0937 51.064 75.9391 51.064C75.7817 51.064 75.6337 51.0427 75.4951 51C75.3564 50.9547 75.2351 50.888 75.1311 50.8C75.0297 50.712 74.9484 50.6013 74.8871 50.468C74.8284 50.332 74.7991 50.172 74.7991 49.988C74.7991 49.828 74.8431 49.6747 74.9311 49.528C75.0191 49.3787 75.1617 49.2467 75.3591 49.132C75.5564 49.0173 75.8137 48.924 76.1311 48.852C76.4484 48.7773 76.8377 48.7347 77.2991 48.724V48.408C77.2991 48.0933 77.2311 47.856 77.0951 47.696C76.9591 47.5333 76.7604 47.452 76.4991 47.452C76.3231 47.452 76.1751 47.4747 76.0551 47.52C75.9377 47.5627 75.8351 47.612 75.7471 47.668C75.6617 47.7213 75.5871 47.7707 75.5231 47.816C75.4617 47.8587 75.4004 47.88 75.3391 47.88C75.2911 47.88 75.2497 47.868 75.2151 47.844C75.1804 47.8173 75.1511 47.7853 75.1271 47.748L74.9991 47.52ZM82.5556 46.948V51H81.8436V48.248C81.8436 48.1947 81.8463 48.1373 81.8516 48.076C81.857 48.0147 81.8636 47.9533 81.8716 47.892C81.8476 47.9453 81.8236 47.9947 81.7996 48.04C81.7756 48.0853 81.7503 48.1267 81.7236 48.164L79.7676 50.824C79.7383 50.8667 79.701 50.908 79.6556 50.948C79.613 50.9853 79.565 51.004 79.5116 51.004H79.0796V46.952H79.7956V49.704C79.7956 49.7547 79.793 49.8107 79.7876 49.872C79.7823 49.9307 79.7756 49.9907 79.7676 50.052C79.7916 50.0013 79.8156 49.9547 79.8396 49.912C79.8636 49.8667 79.8876 49.8253 79.9116 49.788L81.8676 47.128C81.897 47.0853 81.9343 47.0453 81.9796 47.008C82.025 46.968 82.0743 46.948 82.1276 46.948H82.5556ZM80.8636 45.968C80.973 45.968 81.065 45.956 81.1396 45.932C81.2143 45.9053 81.2743 45.864 81.3196 45.808C81.3676 45.752 81.4023 45.68 81.4236 45.592C81.445 45.504 81.4556 45.396 81.4556 45.268H81.8716C81.9223 45.268 81.961 45.2907 81.9876 45.336C82.0143 45.3813 82.0276 45.4307 82.0276 45.484C82.0276 45.6173 82.001 45.7373 81.9476 45.844C81.8943 45.9507 81.817 46.0427 81.7156 46.12C81.617 46.1947 81.4956 46.252 81.3516 46.292C81.2076 46.332 81.045 46.352 80.8636 46.352C80.6823 46.352 80.5196 46.332 80.3756 46.292C80.2316 46.252 80.109 46.1947 80.0076 46.12C79.909 46.0427 79.833 45.9507 79.7796 45.844C79.7263 45.7373 79.6996 45.6173 79.6996 45.484C79.6996 45.4307 79.713 45.3813 79.7396 45.336C79.7663 45.2907 79.805 45.268 79.8556 45.268H80.2716C80.2716 45.396 80.2823 45.504 80.3036 45.592C80.325 45.68 80.3583 45.752 80.4036 45.808C80.4516 45.864 80.513 45.9053 80.5876 45.932C80.6623 45.956 80.7543 45.968 80.8636 45.968ZM86.4732 50.48V47.508H85.1892C85.1625 47.924 85.1252 48.292 85.0772 48.612C85.0292 48.932 84.9732 49.2133 84.9092 49.456C84.8479 49.696 84.7785 49.9 84.7012 50.068C84.6265 50.236 84.5479 50.3733 84.4652 50.48H86.4732ZM87.9052 50.46V52.176C87.9052 52.2453 87.8852 52.2987 87.8452 52.336C87.8079 52.376 87.7585 52.396 87.6972 52.396H87.2612V51H83.8532V52.192C83.8532 52.2427 83.8372 52.2893 83.8052 52.332C83.7759 52.3747 83.7265 52.396 83.6572 52.396H83.2092V50.48H83.3412C83.4345 50.48 83.5265 50.464 83.6172 50.432C83.7105 50.4 83.7999 50.34 83.8852 50.252C83.9705 50.1613 84.0505 50.0347 84.1252 49.872C84.2025 49.7093 84.2719 49.4973 84.3332 49.236C84.3945 48.9747 84.4479 48.6573 84.4932 48.284C84.5385 47.908 84.5745 47.4627 84.6012 46.948H87.1652V50.46H87.9052ZM91.935 46.948L89.675 52.196C89.651 52.2493 89.6203 52.292 89.583 52.324C89.5483 52.356 89.4937 52.372 89.419 52.372H88.891L89.631 50.764L87.959 46.948H88.575C88.6363 46.948 88.6843 46.964 88.719 46.996C88.7563 47.0253 88.7817 47.0587 88.795 47.096L89.879 49.648C89.9217 49.76 89.9577 49.8773 89.987 50C90.0243 49.8747 90.0643 49.756 90.107 49.644L91.159 47.096C91.175 47.0533 91.2017 47.0187 91.239 46.992C91.279 46.9627 91.323 46.948 91.371 46.948H91.935ZM97.9869 46.948V51H97.2709V49.104H95.3269V51H94.6109V46.948H95.3269V48.564H97.2709V46.948H97.9869ZM101.315 49.176C100.987 49.1867 100.707 49.2133 100.475 49.256C100.245 49.296 100.057 49.3493 99.9107 49.416C99.7667 49.4827 99.6614 49.5613 99.5947 49.652C99.5307 49.7427 99.4987 49.844 99.4987 49.956C99.4987 50.0627 99.516 50.1547 99.5507 50.232C99.5854 50.3093 99.632 50.3733 99.6907 50.424C99.752 50.472 99.8227 50.508 99.9027 50.532C99.9854 50.5533 100.073 50.564 100.167 50.564C100.292 50.564 100.407 50.552 100.511 50.528C100.615 50.5013 100.712 50.464 100.803 50.416C100.896 50.368 100.984 50.3107 101.067 50.244C101.152 50.1773 101.235 50.1013 101.315 50.016V49.176ZM99.0147 47.52C99.2387 47.304 99.48 47.1427 99.7387 47.036C99.9974 46.9293 100.284 46.876 100.599 46.876C100.825 46.876 101.027 46.9133 101.203 46.988C101.379 47.0627 101.527 47.1667 101.647 47.3C101.767 47.4333 101.857 47.5947 101.919 47.784C101.98 47.9733 102.011 48.1813 102.011 48.408V51H101.695C101.625 51 101.572 50.9893 101.535 50.968C101.497 50.944 101.468 50.8987 101.447 50.832L101.367 50.448C101.26 50.5467 101.156 50.6347 101.055 50.712C100.953 50.7867 100.847 50.8507 100.735 50.904C100.623 50.9547 100.503 50.9933 100.375 51.02C100.249 51.0493 100.109 51.064 99.9547 51.064C99.7974 51.064 99.6494 51.0427 99.5107 51C99.372 50.9547 99.2507 50.888 99.1467 50.8C99.0454 50.712 98.964 50.6013 98.9027 50.468C98.844 50.332 98.8147 50.172 98.8147 49.988C98.8147 49.828 98.8587 49.6747 98.9467 49.528C99.0347 49.3787 99.1774 49.2467 99.3747 49.132C99.572 49.0173 99.8294 48.924 100.147 48.852C100.464 48.7773 100.853 48.7347 101.315 48.724V48.408C101.315 48.0933 101.247 47.856 101.111 47.696C100.975 47.5333 100.776 47.452 100.515 47.452C100.339 47.452 100.191 47.4747 100.071 47.52C99.9534 47.5627 99.8507 47.612 99.7627 47.668C99.6774 47.7213 99.6027 47.7707 99.5387 47.816C99.4774 47.8587 99.416 47.88 99.3547 47.88C99.3067 47.88 99.2654 47.868 99.2307 47.844C99.196 47.8173 99.1667 47.7853 99.1427 47.748L99.0147 47.52ZM110.566 46.948L109.254 51H108.69C108.621 51 108.573 50.9547 108.546 50.864L107.65 48.116C107.629 48.0547 107.611 47.9933 107.598 47.932C107.585 47.868 107.571 47.8053 107.558 47.744C107.545 47.8053 107.531 47.868 107.518 47.932C107.505 47.9933 107.487 48.056 107.466 48.12L106.554 50.864C106.53 50.9547 106.477 51 106.394 51H105.858L104.546 46.948H105.106C105.162 46.948 105.209 46.9627 105.246 46.992C105.286 47.0213 105.313 47.056 105.326 47.096L106.102 49.704C106.147 49.896 106.183 50.0773 106.21 50.248C106.234 50.16 106.258 50.0707 106.282 49.98C106.309 49.8893 106.337 49.7973 106.366 49.704L107.222 47.08C107.235 47.04 107.258 47.0067 107.29 46.98C107.325 46.9533 107.366 46.94 107.414 46.94H107.726C107.779 46.94 107.823 46.9533 107.858 46.98C107.893 47.0067 107.917 47.04 107.93 47.08L108.766 49.704C108.795 49.7973 108.822 49.8893 108.846 49.98C108.87 50.0707 108.893 50.16 108.914 50.248C108.927 50.16 108.943 50.072 108.962 49.984C108.983 49.8933 109.006 49.8 109.03 49.704L109.822 47.096C109.835 47.0533 109.861 47.0187 109.898 46.992C109.935 46.9627 109.979 46.948 110.03 46.948H110.566ZM116.847 46.948L115.535 51H114.971C114.902 51 114.854 50.9547 114.827 50.864L113.931 48.116C113.91 48.0547 113.893 47.9933 113.879 47.932C113.866 47.868 113.853 47.8053 113.839 47.744C113.826 47.8053 113.813 47.868 113.799 47.932C113.786 47.9933 113.769 48.056 113.747 48.12L112.835 50.864C112.811 50.9547 112.758 51 112.675 51H112.139L110.827 46.948H111.387C111.443 46.948 111.49 46.9627 111.527 46.992C111.567 47.0213 111.594 47.056 111.607 47.096L112.383 49.704C112.429 49.896 112.465 50.0773 112.491 50.248C112.515 50.16 112.539 50.0707 112.563 49.98C112.59 49.8893 112.618 49.7973 112.647 49.704L113.503 47.08C113.517 47.04 113.539 47.0067 113.571 46.98C113.606 46.9533 113.647 46.94 113.695 46.94H114.007C114.061 46.94 114.105 46.9533 114.139 46.98C114.174 47.0067 114.198 47.04 114.211 47.08L115.047 49.704C115.077 49.7973 115.103 49.8893 115.127 49.98C115.151 50.0707 115.174 50.16 115.195 50.248C115.209 50.16 115.225 50.072 115.243 49.984C115.265 49.8933 115.287 49.8 115.311 49.704L116.103 47.096C116.117 47.0533 116.142 47.0187 116.179 46.992C116.217 46.9627 116.261 46.948 116.311 46.948H116.847ZM123.129 46.948L121.817 51H121.253C121.183 51 121.135 50.9547 121.109 50.864L120.213 48.116C120.191 48.0547 120.174 47.9933 120.161 47.932C120.147 47.868 120.134 47.8053 120.121 47.744C120.107 47.8053 120.094 47.868 120.081 47.932C120.067 47.9933 120.05 48.056 120.029 48.12L119.117 50.864C119.093 50.9547 119.039 51 118.957 51H118.421L117.109 46.948H117.669C117.725 46.948 117.771 46.9627 117.809 46.992C117.849 47.0213 117.875 47.056 117.889 47.096L118.665 49.704C118.71 49.896 118.746 50.0773 118.773 50.248C118.797 50.16 118.821 50.0707 118.845 49.98C118.871 49.8893 118.899 49.7973 118.929 49.704L119.785 47.08C119.798 47.04 119.821 47.0067 119.853 46.98C119.887 46.9533 119.929 46.94 119.977 46.94H120.289C120.342 46.94 120.386 46.9533 120.421 46.98C120.455 47.0067 120.479 47.04 120.493 47.08L121.329 49.704C121.358 49.7973 121.385 49.8893 121.409 49.98C121.433 50.0707 121.455 50.16 121.477 50.248C121.49 50.16 121.506 50.072 121.525 49.984C121.546 49.8933 121.569 49.8 121.593 49.704L122.385 47.096C122.398 47.0533 122.423 47.0187 122.461 46.992C122.498 46.9627 122.542 46.948 122.593 46.948H123.129ZM123.53 50.56C123.53 50.4907 123.542 50.4253 123.566 50.364C123.593 50.3027 123.627 50.2493 123.67 50.204C123.715 50.1587 123.769 50.1227 123.83 50.096C123.891 50.0693 123.957 50.056 124.026 50.056C124.095 50.056 124.161 50.0693 124.222 50.096C124.283 50.1227 124.337 50.1587 124.382 50.204C124.427 50.2493 124.463 50.3027 124.49 50.364C124.517 50.4253 124.53 50.4907 124.53 50.56C124.53 50.632 124.517 50.6987 124.49 50.76C124.463 50.8187 124.427 50.8707 124.382 50.916C124.337 50.9613 124.283 50.996 124.222 51.02C124.161 51.0467 124.095 51.06 124.026 51.06C123.957 51.06 123.891 51.0467 123.83 51.02C123.769 50.996 123.715 50.9613 123.67 50.916C123.627 50.8707 123.593 50.8187 123.566 50.76C123.542 50.6987 123.53 50.632 123.53 50.56ZM128.361 47.668C128.339 47.6973 128.318 47.72 128.297 47.736C128.275 47.752 128.246 47.76 128.209 47.76C128.169 47.76 128.125 47.744 128.077 47.712C128.029 47.6773 127.969 47.64 127.897 47.6C127.827 47.56 127.741 47.524 127.637 47.492C127.535 47.4573 127.41 47.44 127.261 47.44C127.061 47.44 126.885 47.476 126.733 47.548C126.581 47.6173 126.453 47.7187 126.349 47.852C126.247 47.9853 126.17 48.1467 126.117 48.336C126.066 48.5253 126.041 48.7373 126.041 48.972C126.041 49.2173 126.069 49.436 126.125 49.628C126.181 49.8173 126.259 49.9773 126.361 50.108C126.465 50.236 126.589 50.3347 126.733 50.404C126.879 50.4707 127.043 50.504 127.225 50.504C127.398 50.504 127.541 50.484 127.653 50.444C127.765 50.4013 127.857 50.3547 127.929 50.304C128.003 50.2533 128.065 50.208 128.113 50.168C128.163 50.1253 128.213 50.104 128.261 50.104C128.319 50.104 128.365 50.1267 128.397 50.172L128.597 50.432C128.509 50.5413 128.409 50.6347 128.297 50.712C128.185 50.7893 128.063 50.8547 127.933 50.908C127.805 50.9587 127.67 50.996 127.529 51.02C127.387 51.044 127.243 51.056 127.097 51.056C126.843 51.056 126.607 51.0093 126.389 50.916C126.173 50.8227 125.985 50.688 125.825 50.512C125.665 50.3333 125.539 50.1147 125.449 49.856C125.358 49.5973 125.313 49.3027 125.313 48.972C125.313 48.6707 125.354 48.392 125.437 48.136C125.522 47.88 125.645 47.66 125.805 47.476C125.967 47.2893 126.166 47.144 126.401 47.04C126.638 46.936 126.91 46.884 127.217 46.884C127.502 46.884 127.753 46.9307 127.969 47.024C128.187 47.1147 128.381 47.244 128.549 47.412L128.361 47.668ZM132.111 47.668C132.089 47.6973 132.068 47.72 132.047 47.736C132.025 47.752 131.996 47.76 131.959 47.76C131.919 47.76 131.875 47.744 131.827 47.712C131.779 47.6773 131.719 47.64 131.647 47.6C131.577 47.56 131.491 47.524 131.387 47.492C131.285 47.4573 131.16 47.44 131.011 47.44C130.811 47.44 130.635 47.476 130.483 47.548C130.331 47.6173 130.203 47.7187 130.099 47.852C129.997 47.9853 129.92 48.1467 129.867 48.336C129.816 48.5253 129.791 48.7373 129.791 48.972C129.791 49.2173 129.819 49.436 129.875 49.628C129.931 49.8173 130.009 49.9773 130.111 50.108C130.215 50.236 130.339 50.3347 130.483 50.404C130.629 50.4707 130.793 50.504 130.975 50.504C131.148 50.504 131.291 50.484 131.403 50.444C131.515 50.4013 131.607 50.3547 131.679 50.304C131.753 50.2533 131.815 50.208 131.863 50.168C131.913 50.1253 131.963 50.104 132.011 50.104C132.069 50.104 132.115 50.1267 132.147 50.172L132.347 50.432C132.259 50.5413 132.159 50.6347 132.047 50.712C131.935 50.7893 131.813 50.8547 131.683 50.908C131.555 50.9587 131.42 50.996 131.279 51.02C131.137 51.044 130.993 51.056 130.847 51.056C130.593 51.056 130.357 51.0093 130.139 50.916C129.923 50.8227 129.735 50.688 129.575 50.512C129.415 50.3333 129.289 50.1147 129.199 49.856C129.108 49.5973 129.063 49.3027 129.063 48.972C129.063 48.6707 129.104 48.392 129.187 48.136C129.272 47.88 129.395 47.66 129.555 47.476C129.717 47.2893 129.916 47.144 130.151 47.04C130.388 46.936 130.66 46.884 130.967 46.884C131.252 46.884 131.503 46.9307 131.719 47.024C131.937 47.1147 132.131 47.244 132.299 47.412L132.111 47.668ZM135.861 47.668C135.839 47.6973 135.818 47.72 135.797 47.736C135.775 47.752 135.746 47.76 135.709 47.76C135.669 47.76 135.625 47.744 135.577 47.712C135.529 47.6773 135.469 47.64 135.397 47.6C135.327 47.56 135.241 47.524 135.137 47.492C135.035 47.4573 134.91 47.44 134.761 47.44C134.561 47.44 134.385 47.476 134.233 47.548C134.081 47.6173 133.953 47.7187 133.849 47.852C133.747 47.9853 133.67 48.1467 133.617 48.336C133.566 48.5253 133.541 48.7373 133.541 48.972C133.541 49.2173 133.569 49.436 133.625 49.628C133.681 49.8173 133.759 49.9773 133.861 50.108C133.965 50.236 134.089 50.3347 134.233 50.404C134.379 50.4707 134.543 50.504 134.725 50.504C134.898 50.504 135.041 50.484 135.153 50.444C135.265 50.4013 135.357 50.3547 135.429 50.304C135.503 50.2533 135.565 50.208 135.613 50.168C135.663 50.1253 135.713 50.104 135.761 50.104C135.819 50.104 135.865 50.1267 135.897 50.172L136.097 50.432C136.009 50.5413 135.909 50.6347 135.797 50.712C135.685 50.7893 135.563 50.8547 135.433 50.908C135.305 50.9587 135.17 50.996 135.029 51.02C134.887 51.044 134.743 51.056 134.597 51.056C134.343 51.056 134.107 51.0093 133.889 50.916C133.673 50.8227 133.485 50.688 133.325 50.512C133.165 50.3333 133.039 50.1147 132.949 49.856C132.858 49.5973 132.813 49.3027 132.813 48.972C132.813 48.6707 132.854 48.392 132.937 48.136C133.022 47.88 133.145 47.66 133.305 47.476C133.467 47.2893 133.666 47.144 133.901 47.04C134.138 46.936 134.41 46.884 134.717 46.884C135.002 46.884 135.253 46.9307 135.469 47.024C135.687 47.1147 135.881 47.244 136.049 47.412L135.861 47.668ZM139.611 47.668C139.589 47.6973 139.568 47.72 139.547 47.736C139.525 47.752 139.496 47.76 139.459 47.76C139.419 47.76 139.375 47.744 139.327 47.712C139.279 47.6773 139.219 47.64 139.147 47.6C139.077 47.56 138.991 47.524 138.887 47.492C138.785 47.4573 138.66 47.44 138.511 47.44C138.311 47.44 138.135 47.476 137.983 47.548C137.831 47.6173 137.703 47.7187 137.599 47.852C137.497 47.9853 137.42 48.1467 137.367 48.336C137.316 48.5253 137.291 48.7373 137.291 48.972C137.291 49.2173 137.319 49.436 137.375 49.628C137.431 49.8173 137.509 49.9773 137.611 50.108C137.715 50.236 137.839 50.3347 137.983 50.404C138.129 50.4707 138.293 50.504 138.475 50.504C138.648 50.504 138.791 50.484 138.903 50.444C139.015 50.4013 139.107 50.3547 139.179 50.304C139.253 50.2533 139.315 50.208 139.363 50.168C139.413 50.1253 139.463 50.104 139.511 50.104C139.569 50.104 139.615 50.1267 139.647 50.172L139.847 50.432C139.759 50.5413 139.659 50.6347 139.547 50.712C139.435 50.7893 139.313 50.8547 139.183 50.908C139.055 50.9587 138.92 50.996 138.779 51.02C138.637 51.044 138.493 51.056 138.347 51.056C138.093 51.056 137.857 51.0093 137.639 50.916C137.423 50.8227 137.235 50.688 137.075 50.512C136.915 50.3333 136.789 50.1147 136.699 49.856C136.608 49.5973 136.563 49.3027 136.563 48.972C136.563 48.6707 136.604 48.392 136.687 48.136C136.772 47.88 136.895 47.66 137.055 47.476C137.217 47.2893 137.416 47.144 137.651 47.04C137.888 46.936 138.16 46.884 138.467 46.884C138.752 46.884 139.003 46.9307 139.219 47.024C139.437 47.1147 139.631 47.244 139.799 47.412L139.611 47.668ZM143.361 47.668C143.339 47.6973 143.318 47.72 143.297 47.736C143.275 47.752 143.246 47.76 143.209 47.76C143.169 47.76 143.125 47.744 143.077 47.712C143.029 47.6773 142.969 47.64 142.897 47.6C142.827 47.56 142.741 47.524 142.637 47.492C142.535 47.4573 142.41 47.44 142.261 47.44C142.061 47.44 141.885 47.476 141.733 47.548C141.581 47.6173 141.453 47.7187 141.349 47.852C141.247 47.9853 141.17 48.1467 141.117 48.336C141.066 48.5253 141.041 48.7373 141.041 48.972C141.041 49.2173 141.069 49.436 141.125 49.628C141.181 49.8173 141.259 49.9773 141.361 50.108C141.465 50.236 141.589 50.3347 141.733 50.404C141.879 50.4707 142.043 50.504 142.225 50.504C142.398 50.504 142.541 50.484 142.653 50.444C142.765 50.4013 142.857 50.3547 142.929 50.304C143.003 50.2533 143.065 50.208 143.113 50.168C143.163 50.1253 143.213 50.104 143.261 50.104C143.319 50.104 143.365 50.1267 143.397 50.172L143.597 50.432C143.509 50.5413 143.409 50.6347 143.297 50.712C143.185 50.7893 143.063 50.8547 142.933 50.908C142.805 50.9587 142.67 50.996 142.529 51.02C142.387 51.044 142.243 51.056 142.097 51.056C141.843 51.056 141.607 51.0093 141.389 50.916C141.173 50.8227 140.985 50.688 140.825 50.512C140.665 50.3333 140.539 50.1147 140.449 49.856C140.358 49.5973 140.313 49.3027 140.313 48.972C140.313 48.6707 140.354 48.392 140.437 48.136C140.522 47.88 140.645 47.66 140.805 47.476C140.967 47.2893 141.166 47.144 141.401 47.04C141.638 46.936 141.91 46.884 142.217 46.884C142.502 46.884 142.753 46.9307 142.969 47.024C143.187 47.1147 143.381 47.244 143.549 47.412L143.361 47.668ZM144.241 50.56C144.241 50.4907 144.253 50.4253 144.277 50.364C144.304 50.3027 144.338 50.2493 144.381 50.204C144.426 50.1587 144.48 50.1227 144.541 50.096C144.602 50.0693 144.668 50.056 144.737 50.056C144.806 50.056 144.872 50.0693 144.933 50.096C144.994 50.1227 145.048 50.1587 145.093 50.204C145.138 50.2493 145.174 50.3027 145.201 50.364C145.228 50.4253 145.241 50.4907 145.241 50.56C145.241 50.632 145.228 50.6987 145.201 50.76C145.174 50.8187 145.138 50.8707 145.093 50.916C145.048 50.9613 144.994 50.996 144.933 51.02C144.872 51.0467 144.806 51.06 144.737 51.06C144.668 51.06 144.602 51.0467 144.541 51.02C144.48 50.996 144.426 50.9613 144.381 50.916C144.338 50.8707 144.304 50.8187 144.277 50.76C144.253 50.6987 144.241 50.632 144.241 50.56ZM146.928 47.76C147.056 47.4827 147.213 47.2667 147.4 47.112C147.586 46.9547 147.814 46.876 148.084 46.876C148.169 46.876 148.25 46.8853 148.328 46.904C148.408 46.9227 148.478 46.952 148.54 46.992L148.488 47.524C148.472 47.5907 148.432 47.624 148.368 47.624C148.33 47.624 148.276 47.616 148.204 47.6C148.132 47.584 148.05 47.576 147.96 47.576C147.832 47.576 147.717 47.5947 147.616 47.632C147.517 47.6693 147.428 47.7253 147.348 47.8C147.27 47.872 147.2 47.9627 147.136 48.072C147.074 48.1787 147.018 48.3013 146.968 48.44V51H146.252V46.948H146.66C146.737 46.948 146.79 46.9627 146.82 46.992C146.849 47.0213 146.869 47.072 146.88 47.144L146.928 47.76ZM152.498 46.948V51H152.074C151.972 51 151.908 50.9507 151.882 50.852L151.826 50.416C151.65 50.6107 151.452 50.768 151.234 50.888C151.015 51.0053 150.764 51.064 150.482 51.064C150.26 51.064 150.064 51.028 149.894 50.956C149.726 50.8813 149.584 50.7773 149.47 50.644C149.355 50.5107 149.268 50.3493 149.21 50.16C149.154 49.9707 149.126 49.7613 149.126 49.532V46.948H149.838V49.532C149.838 49.8387 149.907 50.076 150.046 50.244C150.187 50.412 150.402 50.496 150.69 50.496C150.9 50.496 151.096 50.4467 151.278 50.348C151.462 50.2467 151.631 50.108 151.786 49.932V46.948H152.498ZM159.149 46.948V51H158.437V48.248C158.437 48.1947 158.44 48.1373 158.445 48.076C158.451 48.0147 158.457 47.9533 158.465 47.892C158.441 47.9453 158.417 47.9947 158.393 48.04C158.369 48.0853 158.344 48.1267 158.317 48.164L156.361 50.824C156.332 50.8667 156.295 50.908 156.249 50.948C156.207 50.9853 156.159 51.004 156.105 51.004H155.673V46.952H156.389V49.704C156.389 49.7547 156.387 49.8107 156.381 49.872C156.376 49.9307 156.369 49.9907 156.361 50.052C156.385 50.0013 156.409 49.9547 156.433 49.912C156.457 49.8667 156.481 49.8253 156.505 49.788L158.461 47.128C158.491 47.0853 158.528 47.0453 158.573 47.008C158.619 46.968 158.668 46.948 158.721 46.948H159.149ZM165.818 46.948L163.558 52.196C163.534 52.2493 163.503 52.292 163.466 52.324C163.431 52.356 163.376 52.372 163.302 52.372H162.774L163.514 50.764L161.842 46.948H162.458C162.519 46.948 162.567 46.964 162.602 46.996C162.639 47.0253 162.664 47.0587 162.678 47.096L163.762 49.648C163.804 49.76 163.84 49.8773 163.87 50C163.907 49.8747 163.947 49.756 163.99 49.644L165.042 47.096C165.058 47.0533 165.084 47.0187 165.122 46.992C165.162 46.9627 165.206 46.948 165.254 46.948H165.818ZM166.16 47.364C166.312 47.22 166.496 47.104 166.712 47.016C166.93 46.928 167.193 46.884 167.5 46.884C167.745 46.884 167.961 46.9147 168.148 46.976C168.334 47.0347 168.49 47.1133 168.616 47.212C168.744 47.3107 168.84 47.424 168.904 47.552C168.97 47.6773 169.004 47.808 169.004 47.944C169.004 48.024 168.99 48.108 168.964 48.196C168.94 48.284 168.898 48.368 168.84 48.448C168.781 48.528 168.705 48.6027 168.612 48.672C168.518 48.7413 168.402 48.7973 168.264 48.84C168.522 48.9173 168.725 49.0413 168.872 49.212C169.021 49.3827 169.096 49.592 169.096 49.84C169.096 50.0267 169.053 50.196 168.968 50.348C168.882 50.4973 168.768 50.6253 168.624 50.732C168.48 50.836 168.312 50.916 168.12 50.972C167.93 51.028 167.732 51.056 167.524 51.056C167.393 51.056 167.26 51.044 167.124 51.02C166.99 50.996 166.86 50.9587 166.732 50.908C166.604 50.8547 166.482 50.7893 166.368 50.712C166.256 50.6347 166.156 50.5413 166.068 50.432L166.268 50.172C166.3 50.1267 166.345 50.104 166.404 50.104C166.452 50.104 166.502 50.1253 166.556 50.168C166.612 50.208 166.68 50.2533 166.76 50.304C166.84 50.3547 166.937 50.4013 167.052 50.444C167.169 50.484 167.312 50.504 167.48 50.504C167.626 50.504 167.757 50.4867 167.872 50.452C167.989 50.4147 168.088 50.364 168.168 50.3C168.248 50.236 168.309 50.16 168.352 50.072C168.394 49.984 168.416 49.888 168.416 49.784C168.416 49.584 168.332 49.4227 168.164 49.3C167.998 49.1773 167.746 49.116 167.408 49.116H166.948V48.644H167.408C167.554 48.644 167.686 48.6293 167.804 48.6C167.921 48.568 168.021 48.5253 168.104 48.472C168.186 48.4187 168.249 48.3547 168.292 48.28C168.334 48.2027 168.356 48.12 168.356 48.032C168.356 47.952 168.337 47.876 168.3 47.804C168.265 47.732 168.21 47.6693 168.136 47.616C168.064 47.5627 167.973 47.52 167.864 47.488C167.754 47.456 167.626 47.44 167.48 47.44C167.32 47.44 167.184 47.456 167.072 47.488C166.962 47.52 166.869 47.5547 166.792 47.592C166.717 47.6293 166.656 47.664 166.608 47.696C166.56 47.728 166.518 47.744 166.484 47.744C166.449 47.744 166.42 47.7373 166.396 47.724C166.374 47.7107 166.35 47.6827 166.324 47.64L166.16 47.364ZM173.385 46.948V51H172.669V49.104H170.725V51H170.009V46.948H170.725V48.564H172.669V46.948H173.385ZM176.713 49.176C176.385 49.1867 176.105 49.2133 175.873 49.256C175.644 49.296 175.456 49.3493 175.309 49.416C175.165 49.4827 175.06 49.5613 174.993 49.652C174.929 49.7427 174.897 49.844 174.897 49.956C174.897 50.0627 174.914 50.1547 174.949 50.232C174.984 50.3093 175.03 50.3733 175.089 50.424C175.15 50.472 175.221 50.508 175.301 50.532C175.384 50.5533 175.472 50.564 175.565 50.564C175.69 50.564 175.805 50.552 175.909 50.528C176.013 50.5013 176.11 50.464 176.201 50.416C176.294 50.368 176.382 50.3107 176.465 50.244C176.55 50.1773 176.633 50.1013 176.713 50.016V49.176ZM174.413 47.52C174.637 47.304 174.878 47.1427 175.137 47.036C175.396 46.9293 175.682 46.876 175.997 46.876C176.224 46.876 176.425 46.9133 176.601 46.988C176.777 47.0627 176.925 47.1667 177.045 47.3C177.165 47.4333 177.256 47.5947 177.317 47.784C177.378 47.9733 177.409 48.1813 177.409 48.408V51H177.093C177.024 51 176.97 50.9893 176.933 50.968C176.896 50.944 176.866 50.8987 176.845 50.832L176.765 50.448C176.658 50.5467 176.554 50.6347 176.453 50.712C176.352 50.7867 176.245 50.8507 176.133 50.904C176.021 50.9547 175.901 50.9933 175.773 51.02C175.648 51.0493 175.508 51.064 175.353 51.064C175.196 51.064 175.048 51.0427 174.909 51C174.77 50.9547 174.649 50.888 174.545 50.8C174.444 50.712 174.362 50.6013 174.301 50.468C174.242 50.332 174.213 50.172 174.213 49.988C174.213 49.828 174.257 49.6747 174.345 49.528C174.433 49.3787 174.576 49.2467 174.773 49.132C174.97 49.0173 175.228 48.924 175.545 48.852C175.862 48.7773 176.252 48.7347 176.713 48.724V48.408C176.713 48.0933 176.645 47.856 176.509 47.696C176.373 47.5333 176.174 47.452 175.913 47.452C175.737 47.452 175.589 47.4747 175.469 47.52C175.352 47.5627 175.249 47.612 175.161 47.668C175.076 47.7213 175.001 47.7707 174.937 47.816C174.876 47.8587 174.814 47.88 174.753 47.88C174.705 47.88 174.664 47.868 174.629 47.844C174.594 47.8173 174.565 47.7853 174.541 47.748L174.413 47.52ZM182.006 50.5C182.379 50.5 182.658 50.3667 182.842 50.1C183.026 49.8307 183.118 49.456 183.118 48.976C183.118 48.4933 183.026 48.1173 182.842 47.848C182.658 47.5787 182.379 47.444 182.006 47.444C181.632 47.444 181.354 47.5787 181.17 47.848C180.986 48.1173 180.894 48.4933 180.894 48.976C180.894 49.456 180.986 49.8307 181.17 50.1C181.354 50.3667 181.632 50.5 182.006 50.5ZM180.194 48.696C180.218 48.4187 180.275 48.168 180.366 47.944C180.459 47.72 180.583 47.5293 180.738 47.372C180.895 47.2147 181.079 47.0947 181.29 47.012C181.503 46.9267 181.742 46.884 182.006 46.884C182.288 46.884 182.543 46.9333 182.77 47.032C182.999 47.1307 183.194 47.2707 183.354 47.452C183.514 47.6333 183.636 47.8533 183.722 48.112C183.81 48.368 183.854 48.6547 183.854 48.972C183.854 49.292 183.81 49.58 183.722 49.836C183.634 50.092 183.508 50.3107 183.346 50.492C183.183 50.6733 182.988 50.8133 182.762 50.912C182.535 51.008 182.283 51.056 182.006 51.056C181.736 51.056 181.494 51.0133 181.278 50.928C181.064 50.8427 180.88 50.7213 180.726 50.564C180.571 50.404 180.447 50.2107 180.354 49.984C180.263 49.7573 180.208 49.5013 180.19 49.216H179.21V51H178.494V46.948H179.21V48.696H180.194ZM185.608 45.268V47.556C185.608 47.676 185.605 47.7933 185.6 47.908C185.594 48.0227 185.588 48.1387 185.58 48.256C185.572 48.3707 185.561 48.4893 185.548 48.612C185.537 48.732 185.524 48.8613 185.508 49H185.028C185.012 48.8613 184.997 48.732 184.984 48.612C184.973 48.4893 184.964 48.3707 184.956 48.256C184.948 48.1387 184.941 48.0227 184.936 47.908C184.93 47.7933 184.928 47.676 184.928 47.556V45.268H185.608ZM184.756 50.56C184.756 50.4907 184.768 50.4253 184.792 50.364C184.818 50.3027 184.854 50.2493 184.9 50.204C184.945 50.1587 184.997 50.1227 185.056 50.096C185.117 50.0693 185.184 50.056 185.256 50.056C185.325 50.056 185.389 50.0693 185.448 50.096C185.509 50.1227 185.562 50.1587 185.608 50.204C185.653 50.2493 185.689 50.3027 185.716 50.364C185.742 50.4253 185.756 50.4907 185.756 50.56C185.756 50.632 185.742 50.6987 185.716 50.76C185.689 50.8187 185.653 50.8707 185.608 50.916C185.562 50.9613 185.509 50.996 185.448 51.02C185.389 51.0467 185.325 51.06 185.256 51.06C185.184 51.06 185.117 51.0467 185.056 51.02C184.997 50.996 184.945 50.9613 184.9 50.916C184.854 50.8707 184.818 50.8187 184.792 50.76C184.768 50.6987 184.756 50.632 184.756 50.56Z" fill="#475658"/>
<path d="M14.715 18.55C15.115 18.55 15.43 18.665 15.66 18.895C15.9 19.115 16.02 19.41 16.02 19.78V22H1.14V20.77C1.14 20.52 1.19 20.26 1.29 19.99C1.4 19.71 1.57 19.46 1.8 19.24L8.385 12.64C8.935 12.08 9.425 11.545 9.855 11.035C10.295 10.525 10.66 10.02 10.95 9.52C11.24 9.02 11.46 8.515 11.61 8.005C11.77 7.485 11.85 6.94 11.85 6.37C11.85 5.85 11.775 5.395 11.625 5.005C11.475 4.605 11.26 4.27 10.98 4C10.71 3.73 10.38 3.53 9.99 3.4C9.61 3.26 9.18 3.19 8.7 3.19C8.26 3.19 7.85 3.255 7.47 3.385C7.1 3.505 6.77 3.68 6.48 3.91C6.19 4.13 5.945 4.39 5.745 4.69C5.545 4.99 5.395 5.32 5.295 5.68C5.125 6.14 4.905 6.445 4.635 6.595C4.365 6.745 3.975 6.78 3.465 6.7L1.515 6.355C1.665 5.315 1.955 4.405 2.385 3.625C2.815 2.835 3.35 2.18 3.99 1.66C4.64 1.13 5.38 0.734999 6.21 0.474999C7.05 0.205 7.95 0.0699998 8.91 0.0699998C9.91 0.0699998 10.825 0.22 11.655 0.519999C12.485 0.809999 13.195 1.225 13.785 1.765C14.375 2.305 14.835 2.955 15.165 3.715C15.495 4.475 15.66 5.32 15.66 6.25C15.66 7.05 15.54 7.79 15.3 8.47C15.07 9.15 14.755 9.8 14.355 10.42C13.965 11.04 13.505 11.64 12.975 12.22C12.445 12.8 11.89 13.39 11.31 13.99L6.42 18.985C6.89 18.845 7.355 18.74 7.815 18.67C8.285 18.59 8.73 18.55 9.15 18.55H14.715Z" fill="#03073C"/>
</svg>
